<?xml version="1.0" encoding="UTF-8"?>
<svg version="1.1" xmlns="http://www.w3.org/2000/svg" width="1805" height="468">
<path d="M0 0 C595.65 0 1191.3 0 1805 0 C1805 154.44 1805 308.88 1805 468 C1209.35 468 613.7 468 0 468 C0 313.56 0 159.12 0 0 Z " fill="#FEFEFE" transform="translate(0,0)"/>
<path d="M0 0 C0.98355849 3.06110696 1.96106019 6.1241156 2.9375 9.1875 C3.21529297 10.05181641 3.49308594 10.91613281 3.77929688 11.80664062 C4.18051758 13.06831055 4.18051758 13.06831055 4.58984375 14.35546875 C4.83597412 15.12528076 5.08210449 15.89509277 5.33569336 16.68823242 C7.49420209 24.19977936 7.88721936 30.1087176 4.16796875 37.10546875 C2.89449432 39.17113797 1.48447955 41.0816611 0 43 C0.87785156 43.00386719 0.87785156 43.00386719 1.7734375 43.0078125 C15.45195451 43.62396191 29.15160183 48.70846335 40 57 C41.08667969 57.81597656 41.08667969 57.81597656 42.1953125 58.6484375 C57.29137913 70.87452949 64.66392264 91.72776947 66.81689453 110.52416992 C67.25765936 116.48389807 67.24417522 122.46427002 67.25 128.4375 C67.25100708 129.15209381 67.25201416 129.86668762 67.25305176 130.60293579 C67.24279357 141.35759389 66.73182852 151.54369084 64 162 C63.7215625 163.1240625 63.443125 164.248125 63.15625 165.40625 C58.03988562 183.93101757 47.30105489 200.70298275 30.78125 211.0078125 C8.91100601 222.59502893 -16.87717172 225.19973652 -41 220 C-42.46373047 219.72542969 -42.46373047 219.72542969 -43.95703125 219.4453125 C-60.23304953 215.98959171 -73.06743532 207.29349188 -82.9375 194.0625 C-98.83482034 169.5605621 -100.78234279 134.1261808 -95.45410156 106.02148438 C-92.97968986 95.00636131 -88.96372164 84.60116888 -83 75 C-84.84851563 74.87044922 -84.84851563 74.87044922 -86.734375 74.73828125 C-106.49086869 73.14769068 -106.49086869 73.14769068 -114 68 C-120.97007641 59.18304309 -123.38641049 46.91688186 -125 36 C-113.14287844 35.7800843 -101.32722126 36.52106729 -89.4921875 37.14550781 C-84.15172193 37.42508347 -78.81135037 37.67693758 -73.46783447 37.89077759 C-71.12196633 37.99460196 -68.78066087 38.13556921 -66.43701172 38.2800293 C-57.62769426 38.71024533 -52.31048034 37.68875802 -45.625 31.8125 C-44.01944644 30.51932057 -42.41264388 29.22769051 -40.8046875 27.9375 C-40.00901367 27.27878906 -39.21333984 26.62007812 -38.39355469 25.94140625 C-34.63487926 22.89275397 -30.69662589 20.11059194 -26.75 17.3125 C-22.35233102 14.16036343 -17.97118907 10.99133266 -13.64453125 7.7421875 C-12.95584961 7.22744873 -12.26716797 6.71270996 -11.55761719 6.18237305 C-10.26076877 5.2106889 -8.96818272 4.2332806 -7.68066406 3.24926758 C-3.33366271 0 -3.33366271 0 0 0 Z " fill="#7031A0" transform="translate(167,100)"/>
<path d="M0 0 C12.33643181 8.97397477 19.08780367 22.08918232 21.76171875 36.90234375 C22.54653487 42.38349954 23.04896272 47.77806202 23.25 53.3125 C23.28254883 54.04210937 23.31509766 54.77171875 23.34863281 55.5234375 C24.1801135 76.0164969 21.27871832 96.52763729 7.8125 112.875 C6.65343475 114.04958845 5.46556585 115.1964848 4.25 116.3125 C3.63125 116.92351562 3.0125 117.53453125 2.375 118.1640625 C-7.40515763 126.86988463 -21.01620293 129.48371048 -33.78125 128.78125 C-42.9823131 127.69451026 -49.49111224 123.72815962 -56.609375 118.1171875 C-57.20347168 117.6543335 -57.79756836 117.19147949 -58.40966797 116.71459961 C-59.8593657 115.58430209 -61.30509951 114.44892358 -62.75 113.3125 C-62.75142502 114.01993851 -62.75285004 114.72737701 -62.75431824 115.45625305 C-62.77214506 122.12204652 -62.81374771 128.78721739 -62.88209057 135.45269489 C-62.91638801 138.87960378 -62.94147459 142.30606564 -62.94555664 145.7331543 C-62.95065201 149.67276951 -62.99572738 153.61143661 -63.04296875 157.55078125 C-63.03706978 159.3977636 -63.03706978 159.3977636 -63.03105164 161.28205872 C-63.06051628 162.99349312 -63.06051628 162.99349312 -63.09057617 164.73950195 C-63.09723801 165.745439 -63.10389984 166.75137604 -63.11076355 167.78779602 C-63.75 170.3125 -63.75 170.3125 -66.10371399 172.09831238 C-70.97001004 174.33110067 -75.22844582 174.52859933 -80.5 174.5625 C-81.67949219 174.5934375 -81.67949219 174.5934375 -82.8828125 174.625 C-88.25924446 174.6607238 -91.99675272 173.87576948 -96.75 171.3125 C-98.19602347 168.42045305 -97.88268242 165.91555937 -97.89044189 162.68301392 C-97.89341302 161.99400698 -97.89638414 161.30500005 -97.8994453 160.59511411 C-97.90815055 158.27514857 -97.90964207 155.95523451 -97.91113281 153.63525391 C-97.91575967 151.97644439 -97.92078415 150.31763594 -97.92617798 148.65882874 C-97.93931617 144.14436017 -97.94574963 139.62990648 -97.95018864 135.11542177 C-97.9531169 132.29685928 -97.95722122 129.47830088 -97.96169281 126.65974045 C-97.97537109 117.84659202 -97.98503629 109.03345291 -97.9888947 100.22029459 C-97.9933773 90.0365049 -98.01093316 79.85284931 -98.0398953 69.6691004 C-98.06148896 61.8040917 -98.07159773 53.93912078 -98.07293582 46.07408273 C-98.07398546 41.37346967 -98.07992689 36.6729826 -98.09775543 31.97240067 C-98.1141963 27.55159587 -98.11641111 23.13101232 -98.10761642 18.71018791 C-98.10684392 17.0864026 -98.11121674 15.46260559 -98.12107468 13.83885002 C-98.13373239 11.62428546 -98.1279518 9.41051183 -98.11749268 7.19595337 C-98.11895924 5.95597406 -98.1204258 4.71599476 -98.1219368 3.43844032 C-97.72174063 0.07499428 -97.09623008 -1.29613198 -94.75 -3.6875 C-88.93725641 -6.15430766 -79.27296157 -5.61972983 -73.2109375 -4.015625 C-71.3125 -3.1875 -71.3125 -3.1875 -68.75 -1.6875 C-68.42 3.2625 -68.09 8.2125 -67.75 13.3125 C-66.326875 11.971875 -64.90375 10.63125 -63.4375 9.25 C-45.37813007 -6.88168438 -21.68665998 -13.24066485 0 0 Z " fill="#7132A1" transform="translate(506.75,193.6875)"/>
<path d="M0 0 C0.7734375 0.53238281 1.546875 1.06476563 2.34375 1.61328125 C2.9728125 2.03222656 3.601875 2.45117188 4.25 2.8828125 C16.13258367 11.82175612 21.34214443 28.45586959 23.34375 42.61328125 C23.57813525 47.31197813 23.61410652 52.00970169 23.63891602 56.71337891 C23.65033632 58.21217362 23.67062674 59.71093096 23.70043945 61.20947266 C24.08752394 80.7366956 19.80177441 100.71332566 6.34375 115.61328125 C-5.23381725 125.92563531 -16.91880071 128.99758299 -32.1640625 128.8203125 C-44.45315511 128.0917645 -53.51071392 121.29231818 -62.65625 113.61328125 C-62.64736755 114.32071976 -62.63848511 115.02815826 -62.6293335 115.7570343 C-62.54920113 122.42243543 -62.48829291 129.08770225 -62.44900131 135.75347614 C-62.42812179 139.18050488 -62.39979917 142.60713579 -62.35449219 146.03393555 C-62.30273675 149.97309617 -62.28330763 153.91209543 -62.265625 157.8515625 C-62.24497986 159.08288406 -62.22433472 160.31420563 -62.20306396 161.58283997 C-62.20276184 162.72379623 -62.20245972 163.8647525 -62.20214844 165.0402832 C-62.19326599 166.04622025 -62.18438354 167.05215729 -62.17523193 168.08857727 C-62.65625 170.61328125 -62.65625 170.61328125 -64.54766846 172.41960144 C-69.48154135 175.21269449 -75.07220736 174.8272222 -80.59375 174.86328125 C-81.77227539 174.89421875 -81.77227539 174.89421875 -82.97460938 174.92578125 C-87.97124282 174.95923152 -91.29413832 174.31656173 -95.65625 171.61328125 C-96.65625 170.61328125 -96.65625 170.61328125 -96.77929783 167.80404568 C-96.77837604 166.53658032 -96.77745424 165.26911497 -96.77650452 163.96324158 C-96.77735894 163.26001615 -96.77821337 162.55679072 -96.77909368 161.83225542 C-96.78075053 159.45837609 -96.7752238 157.08456627 -96.76977539 154.71069336 C-96.76949354 153.01598614 -96.76965122 151.3212788 -96.7702179 149.62657166 C-96.77050594 145.01106499 -96.76460809 140.39558408 -96.75764394 135.78008342 C-96.75141156 130.96207861 -96.75080669 126.14407328 -96.74961853 121.32606506 C-96.74650487 112.19585627 -96.73829102 103.06565939 -96.72826904 93.93545586 C-96.71710898 83.54385449 -96.71159772 73.15225257 -96.70657361 62.7606467 C-96.69610843 41.37818489 -96.67850832 19.99573382 -96.65625 -1.38671875 C-91.81506281 -3.97617103 -88.10497465 -4.85389642 -82.65625 -4.76171875 C-81.62757813 -4.77912109 -81.62757813 -4.77912109 -80.578125 -4.796875 C-75.88456938 -4.7700035 -72.63018513 -3.87042821 -68.65625 -1.38671875 C-67.23990167 1.44597791 -67.3099495 4.08794563 -67.09375 7.23828125 C-66.96806641 9.02105469 -66.96806641 9.02105469 -66.83984375 10.83984375 C-66.77925781 11.75507813 -66.71867187 12.6703125 -66.65625 13.61328125 C-66.22957031 13.12859375 -65.80289062 12.64390625 -65.36328125 12.14453125 C-48.74957407 -5.66810326 -21.54430812 -13.93065602 0 0 Z " fill="#7131A0" transform="translate(358.65625,193.38671875)"/>
<path d="M0 0 C13.57242805 11.65121677 19.39417394 26.42276678 21.00390625 43.890625 C21.2482999 48.16268115 21.34454786 52.42455121 21.37890625 56.703125 C21.39276367 57.72801025 21.40662109 58.75289551 21.42089844 59.80883789 C21.32062585 76.23111284 15.67940392 93.3253327 4.56640625 105.578125 C3.72078125 106.34125 2.87515625 107.104375 2.00390625 107.890625 C1.28847656 108.59445312 1.28847656 108.59445312 0.55859375 109.3125 C-13.85209721 122.81817172 -32.87030631 124.40653102 -51.58300781 123.97949219 C-67.42827566 123.39595541 -82.44473094 117.56069428 -93.37890625 105.8203125 C-108.16649647 88.17521692 -108.45928295 64.64974257 -106.703125 42.80859375 C-104.69730047 26.38466419 -96.73630586 11.40172866 -83.99609375 0.890625 C-60.63487188 -15.68494941 -23.70293479 -16.687855 0 0 Z " fill="#7131A0" transform="translate(656.99609375,198.109375)"/>
<path d="M0 0 C6.33671124 5.01084814 10.59202141 10.72423618 14 18 C14.53625 19.0725 15.0725 20.145 15.625 21.25 C18.86096302 30.07535369 20.28521416 38.50462333 20.375 47.875 C20.39566528 49.06947754 20.39566528 49.06947754 20.41674805 50.28808594 C20.37524843 55.56683751 19.6142227 59.37483676 17 64 C13.48090301 66.51964313 9.72718891 66.26998964 5.56933594 66.22705078 C4.82748047 66.22734283 4.085625 66.22763489 3.32128906 66.22793579 C0.87553099 66.22654533 -1.56992032 66.21099765 -4.015625 66.1953125 C-5.71384515 66.19158136 -7.41206745 66.18873486 -9.11029053 66.18673706 C-13.57537807 66.17910857 -18.04033506 66.15946681 -22.50537109 66.1373291 C-27.0634586 66.11685379 -31.62156724 66.10773174 -36.1796875 66.09765625 C-45.11984896 66.07622018 -54.05991361 66.04209368 -63 66 C-62.85314925 67.77004501 -62.7023236 69.53976056 -62.54980469 71.30932617 C-62.46623718 72.29486984 -62.38266968 73.28041351 -62.29656982 74.29582214 C-61.50435841 81.51935063 -58.28584792 88.06654194 -53 93 C-39.32504435 100.62170467 -21.77982276 99.58028707 -6.98046875 95.8671875 C-3.36997041 94.81668864 0.21684762 93.69988059 3.80078125 92.5625 C6.9671186 91.75263752 9.75032254 91.78806451 13 92 C14.68306823 95.36613647 14.26885525 99.11433508 14.3125 102.8125 C14.35600586 104.02389648 14.35600586 104.02389648 14.40039062 105.25976562 C14.44195018 109.16316662 14.30770249 111.45419439 12.359375 114.91015625 C-0.35309567 126.17037448 -25.55517741 125.88600614 -41.50146484 125.15966797 C-58.40803025 124.07926013 -73.3748041 119.04342682 -85 106 C-98.42164234 88.25261863 -99.99421855 64.99441823 -97.5703125 43.58984375 C-95.02777477 25.94352278 -86.91130234 10.57894642 -72.6328125 -0.25 C-68.30644902 -3.12568374 -63.85385858 -5.17721385 -59 -7 C-58.20722656 -7.3196875 -57.41445312 -7.639375 -56.59765625 -7.96875 C-38.16364023 -14.25903035 -16.15498627 -10.05545587 0 0 Z " fill="#7132A0" transform="translate(1284,197)"/>
<path d="M0 0 C9.45400361 7.46661975 16.12292626 20.91893932 17.59375 32.7734375 C18.08319244 37.95219428 18.24515051 43.12069264 18.30078125 48.3203125 C18.34428711 49.69896484 18.34428711 49.69896484 18.38867188 51.10546875 C18.42914935 55.40853547 18.39578106 57.88564331 16.15625 61.6484375 C12.32847272 65.04171033 8.51292598 64.70871042 3.67114258 64.68383789 C2.55857841 64.68405693 2.55857841 64.68405693 1.42353821 64.6842804 C-1.0275668 64.68358384 -3.47859577 64.67580347 -5.9296875 64.66796875 C-7.62933816 64.66610366 -9.32898936 64.66468018 -11.02864075 64.66368103 C-15.50191736 64.65986305 -19.97516151 64.65003888 -24.44842529 64.63897705 C-29.01313844 64.62874749 -33.57785682 64.6241801 -38.14257812 64.61914062 C-47.0989726 64.60841599 -56.05534297 64.59134817 -65.01171875 64.5703125 C-64.61168193 67.09478729 -64.19232859 69.61352295 -63.76171875 72.1328125 C-63.65214844 72.83728516 -63.54257813 73.54175781 -63.4296875 74.26757812 C-62.52000938 79.46231895 -60.7545692 83.07634471 -58.01171875 87.5703125 C-58.01171875 88.2303125 -58.01171875 88.8903125 -58.01171875 89.5703125 C-57.23828125 89.9415625 -57.23828125 89.9415625 -56.44921875 90.3203125 C-53.82765398 91.66470469 -51.31604671 93.14838771 -48.79296875 94.66796875 C-38.15914607 100.05483945 -19.74305767 97.53295331 -8.62890625 94.4375 C-6.1417945 93.61341223 -3.66941685 92.75611486 -1.19921875 91.8828125 C3.02465761 90.39157334 6.52561804 90.25155084 10.98828125 90.5703125 C13.21325437 92.79528562 12.17359253 97.89520309 12.17578125 100.8828125 C12.18802734 101.75099609 12.20027344 102.61917969 12.21289062 103.51367188 C12.21482422 104.35349609 12.21675781 105.19332031 12.21875 106.05859375 C12.22285889 106.82727783 12.22696777 107.59596191 12.23120117 108.38793945 C11.95571236 110.86290883 11.28433208 112.45427581 9.98828125 114.5703125 C-7.23419689 125.81223779 -36.41256287 125.95299829 -56 122.31640625 C-69.38881832 118.99959134 -80.83897644 112.69954662 -89.2265625 101.5390625 C-97.16270645 88.34109883 -99.35967878 73.86279124 -99.26171875 58.6953125 C-99.26945312 57.50550781 -99.2771875 56.31570312 -99.28515625 55.08984375 C-99.24293251 35.77248308 -94.36182352 18.27038875 -81.01171875 3.8828125 C-59.55408185 -16.67348735 -23.62002844 -16.69764 0 0 Z " fill="#7131A0" transform="translate(1424.01171875,198.4296875)"/>
<path d="M0 0 C0.78181641 -0.020625 1.56363281 -0.04125 2.36914062 -0.0625 C7.74053457 -0.09839904 11.40730758 0.77554745 16.1875 3.25 C17.89751215 4.96001215 17.31726923 7.12242669 17.33094788 9.40370178 C17.33041916 10.14180588 17.32989044 10.87990997 17.3293457 11.64038086 C17.33282013 12.41450317 17.33629456 13.18862549 17.33987427 13.98620605 C17.34724686 15.67444573 17.35258419 17.36269521 17.35616493 19.05094719 C17.3633208 21.72964723 17.37898445 24.40816304 17.39750671 27.08680725 C17.44999053 34.70571227 17.49787528 42.32452198 17.51342773 49.94360352 C17.52355766 54.60042209 17.55301823 59.25678547 17.59474754 63.91342354 C17.60700184 65.6830455 17.61218905 67.45273197 17.60994911 69.22239494 C17.59954361 80.13573003 17.9462496 88.88812439 24.1875 98.25 C27.96810136 102.03060136 31.1486858 102.56233632 36.4375 102.625 C45.75255796 102.45828755 51.73573045 98.77426134 58.1875 92.25 C59.03638794 91.39206345 59.88527588 90.53412689 60.7598877 89.65019226 C63.71952847 86.05410152 63.86829087 82.6140767 63.76757812 78.08911133 C63.77003036 77.29326126 63.7724826 76.49741119 63.77500916 75.67744446 C63.77717354 73.95869158 63.7679604 72.23989407 63.7485199 70.52124977 C63.71841386 67.80166677 63.7194932 65.08365397 63.7286377 62.36393738 C63.74253868 56.59659153 63.71780924 50.82976088 63.6875 45.0625 C63.6523882 38.36808063 63.63306894 31.67442013 63.65562439 24.97992516 C63.65624324 22.2988253 63.62703525 19.61909061 63.59680176 16.93818665 C63.5988755 15.29969028 63.60233965 13.66119488 63.60742188 12.02270508 C63.58270058 10.90288239 63.58270058 10.90288239 63.55747986 9.76043701 C63.58190918 7.6834259 63.58190918 7.6834259 64.1875 4.25 C66.59875488 2.32670593 66.59875488 2.32670593 69.1875 1.25 C69.8475 0.92 70.5075 0.59 71.1875 0.25 C74.09469966 0.12436223 76.96754426 0.06481301 79.875 0.0625 C81.06125977 0.04413086 81.06125977 0.04413086 82.27148438 0.02539062 C87.29649097 0.01294222 91.45457371 0.5184416 96.1875 2.25 C98.70872859 4.77122859 98.44182371 5.60586964 98.45492554 9.09518433 C98.46345551 10.11867981 98.47198547 11.14217529 98.48077393 12.19668579 C98.47986755 13.32400116 98.47896118 14.45131653 98.47802734 15.61279297 C98.48474457 16.79659546 98.49146179 17.98039795 98.49838257 19.20007324 C98.5141581 22.45222555 98.52073954 25.70422484 98.52201414 28.95641088 C98.52391149 31.670124 98.53126725 34.38381252 98.53835833 37.09751618 C98.55465456 43.50008202 98.55952622 49.90259159 98.55810547 56.30517578 C98.55690413 62.91154741 98.57800127 69.51759228 98.6095928 76.12388122 C98.63574021 81.79359185 98.6464734 87.46319569 98.64519465 93.13296616 C98.64468449 96.52019674 98.65039636 99.90713713 98.67155075 103.29430771 C98.69108315 107.07262238 98.68542193 110.85009051 98.67333984 114.62841797 C98.68457886 115.75168488 98.69581787 116.87495178 98.70739746 118.03225708 C98.69900848 119.06139221 98.69061951 120.09052734 98.68197632 121.15084839 C98.68306585 122.04423353 98.68415539 122.93761868 98.68527794 123.8580761 C98.022072 127.04491506 96.68670515 128.22916575 94.1875 130.25 C90.52398419 131.47117194 87.12697028 131.43406354 83.3125 131.4375 C82.60480469 131.44974609 81.89710938 131.46199219 81.16796875 131.47460938 C77.05781079 131.48609026 73.86326335 131.12981053 70.1875 129.25 C68.19133446 127.25383446 68.77766573 123.43298037 68.625 120.6875 C68.58181641 119.97658203 68.53863281 119.26566406 68.49414062 118.53320312 C68.38778223 116.77238088 68.28711154 115.0112168 68.1875 113.25 C67.50945312 113.90226562 66.83140625 114.55453125 66.1328125 115.2265625 C57.66405829 123.17921535 49.51096938 129.0312633 38.1875 132.25 C37.1975 132.58 36.2075 132.91 35.1875 133.25 C21.67383307 134.15586119 8.85233907 133.40494389 -1.8828125 124.1640625 C-16.52490731 109.64052716 -16.95238859 91.0968606 -17.0404911 71.7279377 C-17.04388685 70.82900732 -17.0472826 69.93007694 -17.05078125 69.00390625 C-17.05485678 68.09008619 -17.0589323 67.17626614 -17.06313133 66.23475456 C-17.08386099 61.41374828 -17.09822849 56.5927695 -17.10766602 51.77172852 C-17.11880908 46.79261876 -17.15333547 41.81394625 -17.19283772 36.83499241 C-17.21890786 32.99949792 -17.22734838 29.1641104 -17.23094749 25.32853508 C-17.23582461 23.49165775 -17.24747047 21.65478556 -17.26598549 19.81799507 C-17.290212 17.25923949 -17.28944475 14.70165625 -17.2824707 12.14282227 C-17.29528076 11.38385651 -17.30809082 10.62489075 -17.32128906 9.84292603 C-17.2702014 4.71885921 -17.2702014 4.71885921 -14.9078064 2.2988739 C-10.05967134 -0.1280181 -5.3151738 0.03454215 0 0 Z " fill="#7232A1" transform="translate(913.8125,188.75)"/>
<path d="M0 0 C1.06734375 0.36738281 1.06734375 0.36738281 2.15625 0.7421875 C12.31073568 4.67183436 19.54400231 12.16965004 24 22 C28.17403125 34.3037278 28.57995395 46.05237254 28.49609375 58.92578125 C28.49624911 60.89112908 28.49774411 62.85647722 28.50050354 64.82182312 C28.50187626 68.90373577 28.48950567 72.98529214 28.46655273 77.06713867 C28.43792476 82.30164528 28.44098652 87.53557225 28.45364285 92.77012348 C28.46058245 96.81152835 28.45283455 100.85279838 28.44038582 104.89418602 C28.43587177 106.82592439 28.43553411 108.75767721 28.43945122 110.68941689 C28.44235274 113.37438634 28.42591652 116.05854159 28.40405273 118.7434082 C28.40855438 119.53970139 28.41305603 120.33599457 28.41769409 121.15641785 C28.34502304 126.51146501 28.34502304 126.51146501 26.60585022 128.9740448 C22.00486216 131.91355159 15.83254175 131.21754401 10.5625 131.25 C9.31243164 131.2809375 9.31243164 131.2809375 8.03710938 131.3125 C2.91281357 131.34490661 -0.53615784 130.80139698 -5 128 C-6.72160864 126.27839136 -6.12985178 124.07888624 -6.14344788 121.78283691 C-6.14291916 121.03538208 -6.14239044 120.28792725 -6.1418457 119.51782227 C-6.14532013 118.73394638 -6.14879456 117.9500705 -6.15237427 117.1424408 C-6.15974694 115.4329201 -6.16508423 113.72338973 -6.16866493 112.01385689 C-6.17582044 109.30155289 -6.19148377 106.58943087 -6.21000671 103.87718201 C-6.26249267 96.16269558 -6.31037692 88.44830335 -6.32592773 80.73364258 C-6.33605647 76.01847187 -6.36551403 71.30375087 -6.40724754 66.58875847 C-6.41950338 64.79680739 -6.42468877 63.00479257 -6.42244911 61.21280098 C-6.02725317 46.30655325 -6.02725317 46.30655325 -12.4823761 33.33912659 C-17.7126291 28.69970454 -22.86117941 28.46802232 -29.58203125 28.53515625 C-34.23182241 29.16752785 -36.95596432 30.82915843 -40.48458862 33.85142517 C-43 36 -43 36 -45.3977356 37.69874573 C-49.42042426 40.91716455 -52.06487048 43.81967111 -52.80413818 48.99679565 C-53.2030138 53.98520158 -53.08997674 58.96630945 -52.9921875 63.96484375 C-52.99022087 65.80807034 -52.9926613 67.6513064 -52.9992981 69.49452209 C-53.00689656 74.32279006 -52.96358064 79.14916241 -52.90667725 83.97705078 C-52.82374472 91.7276469 -52.81737404 99.4786197 -52.81363297 107.22958565 C-52.80477969 109.93665368 -52.77333996 112.64275018 -52.73849487 115.34959412 C-52.72866535 116.99860357 -52.71929154 118.64761582 -52.71044922 120.29663086 C-52.68708748 121.42880287 -52.68708748 121.42880287 -52.66325378 122.58384705 C-52.66183472 124.66905212 -52.66183472 124.66905212 -53 128 C-58.40470348 131.60313565 -64.13458814 131.21118299 -70.4375 131.25 C-71.68756836 131.2809375 -71.68756836 131.2809375 -72.96289062 131.3125 C-74.18588867 131.32023437 -74.18588867 131.32023437 -75.43359375 131.328125 C-76.16634521 131.3374707 -76.89909668 131.34681641 -77.65405273 131.35644531 C-80 131 -80 131 -86 128 C-86 86.75 -86 45.5 -86 3 C-80.6015978 0.3007989 -77.70728841 -0.47155187 -72 -0.375 C-70.97132812 -0.39240234 -70.97132812 -0.39240234 -69.921875 -0.41015625 C-65.22831938 -0.38328475 -61.97393513 0.51629054 -58 3 C-56.64908472 5.70183055 -56.66141942 8.11808206 -56.4375 11.125 C-56.31181641 12.76855469 -56.31181641 12.76855469 -56.18359375 14.4453125 C-56.12300781 15.28835937 -56.06242187 16.13140625 -56 17 C-55.47792969 16.50371094 -54.95585938 16.00742188 -54.41796875 15.49609375 C-39.28278746 1.52719613 -20.53333174 -7.2046778 0 0 Z " fill="#7131A0" transform="translate(1132,189)"/>
<path d="M0 0 C11.67433631 9.82735176 16.6392526 23.1510489 18.0546875 38.015625 C18.32118871 43.20451827 18.40401488 48.38401024 18.4296875 53.578125 C18.44338379 54.86702637 18.45708008 56.15592773 18.47119141 57.48388672 C18.38941084 74.90314794 14.94161204 91.99147377 2.5 105.04296875 C-8.89016975 114.23152422 -21.74036174 116.13847163 -35.9453125 115.015625 C-47.06802034 113.17110002 -55.50643415 109.09627829 -62.1953125 99.890625 C-70.5971805 86.12089688 -72.30459753 71.34373992 -72.1953125 55.515625 C-72.20304687 54.39542969 -72.21078125 53.27523437 -72.21875 52.12109375 C-72.17797552 34.44535483 -69.41803379 17.35367707 -57.1015625 4.01953125 C-42.23682636 -10.14461282 -16.88157311 -11.37379196 0 0 Z " fill="#FEFDFE" transform="translate(178.9453125,177.984375)"/>
<path d="M0 0 C1.44176384 0.0851222 2.88354175 0.17000646 4.32533264 0.25466919 C7.34355791 0.43258326 10.36164372 0.61265532 13.37963867 0.79443359 C17.15623302 1.02183669 20.93306213 1.24499202 24.70999718 1.46665573 C43.49597422 2.57050025 62.2683657 3.79871281 81.03515625 5.1953125 C78.30982854 7.98932139 75.67824876 10.63441638 72.4609375 12.8515625 C71.80295166 13.30974365 71.14496582 13.7679248 70.46704102 14.23999023 C69.76764404 14.72024658 69.06824707 15.20050293 68.34765625 15.6953125 C66.82098068 16.75820467 65.29496014 17.82203817 63.76953125 18.88671875 C62.98642578 19.43215332 62.20332031 19.97758789 61.39648438 20.53955078 C57.6029068 23.19960487 53.84950331 25.91435667 50.09765625 28.6328125 C49.35233643 29.17228516 48.6070166 29.71175781 47.83911133 30.26757812 C46.32629342 31.3628368 44.81367951 32.45837731 43.30126953 33.55419922 C39.54870837 36.27179415 35.79176546 38.98331752 32.03515625 41.6953125 C26.64659214 45.5857108 21.25946418 49.47805435 15.87792969 53.37817383 C14.3323565 54.49451061 12.78358398 55.60643299 11.23144531 56.71362305 C8.13360992 58.92553223 5.10755568 61.13527636 2.17578125 63.56640625 C-2.3536615 67.24472822 -5.35263231 68.54386238 -11.24609375 68.421875 C-12.4877832 68.39746338 -13.72947266 68.37305176 -15.00878906 68.34790039 C-21.0257047 68.1158236 -27.03336593 67.78586801 -33.0418396 67.3973999 C-51.33923448 66.22202901 -69.63658347 65.62434971 -87.96484375 65.1953125 C-87.23748657 67.84165459 -86.50813778 70.48741888 -85.77734375 73.1328125 C-85.5553833 73.93879883 -85.33342285 74.74478516 -85.10473633 75.57519531 C-83.9562353 79.72029499 -82.7783662 83.85179322 -81.51953125 87.96484375 C-81.29031982 88.71838135 -81.0611084 89.47191895 -80.82495117 90.24829102 C-80.3868427 91.67933934 -79.94202012 93.10835484 -79.48950195 94.53491211 C-78.27038147 98.53078185 -77.6420253 102.01766201 -77.96484375 106.1953125 C-78.96484375 107.1953125 -78.96484375 107.1953125 -81.90234375 107.3828125 C-84.96484375 107.1953125 -84.96484375 107.1953125 -86.96484375 105.1953125 C-87.75512695 103.14257812 -87.75512695 103.14257812 -88.515625 100.6015625 C-88.79978271 99.66127197 -89.08394043 98.72098145 -89.37670898 97.75219727 C-89.67391846 96.74342529 -89.97112793 95.73465332 -90.27734375 94.6953125 C-90.58422119 93.67042725 -90.89109863 92.64554199 -91.20727539 91.58959961 C-93.91571963 82.49207722 -96.48285179 73.35695101 -98.96484375 64.1953125 C-103.25484375 63.8653125 -107.54484375 63.5353125 -111.96484375 63.1953125 C-111.96484375 62.5353125 -111.96484375 61.8753125 -111.96484375 61.1953125 C-109.56252853 59.36204762 -107.14857068 57.64300863 -104.65234375 55.9453125 C-103.08078847 54.8572616 -101.51052217 53.76734709 -99.94140625 52.67578125 C-98.71019043 51.81992432 -98.71019043 51.81992432 -97.45410156 50.94677734 C-93.43028089 48.11557986 -89.47877633 45.18879548 -85.52734375 42.2578125 C-78.63542945 37.15455909 -71.70710285 32.10671319 -64.74560547 27.09887695 C-60.00695528 23.68470388 -55.29634269 20.23519146 -50.60351562 16.75830078 C-48.2021913 14.98218182 -45.7932037 13.21691126 -43.3828125 11.453125 C-40.64305892 9.44636278 -37.93946162 7.4060884 -35.265625 5.3125 C-34.16570666 4.48131796 -33.06547179 3.65055455 -31.96484375 2.8203125 C-31.05734375 2.11132812 -30.14984375 1.40234375 -29.21484375 0.671875 C-20.79667097 -3.15272754 -9.03477538 -0.54723026 0 0 Z " fill="#020202" transform="translate(112.96484375,61.8046875)"/>
<path d="M0 0 C1.49176758 -0.0009668 1.49176758 -0.0009668 3.01367188 -0.00195312 C4.04169922 0.01802734 5.06972656 0.03800781 6.12890625 0.05859375 C7.15306641 0.05150391 8.17722656 0.04441406 9.23242188 0.03710938 C15.41428065 0.08912502 17.81026401 0.55552263 23.69140625 3.49609375 C23.69140625 13.06609375 23.69140625 22.63609375 23.69140625 32.49609375 C32.397256 32.37760965 32.397256 32.37760965 41.10253906 32.22583008 C42.18889648 32.2183374 43.27525391 32.21084473 44.39453125 32.203125 C46.05983887 32.17955933 46.05983887 32.17955933 47.75878906 32.15551758 C51.06374056 32.53933437 52.43613674 33.06236905 54.69140625 35.49609375 C55.17724609 37.60913086 55.17724609 37.60913086 55.15234375 40.0234375 C55.14847656 40.89806641 55.14460937 41.77269531 55.140625 42.67382812 C55.10388672 44.03991211 55.10388672 44.03991211 55.06640625 45.43359375 C55.06511719 46.34044922 55.06382812 47.24730469 55.0625 48.18164062 C55.00086989 52.83471398 54.83924363 55.20041898 52.69140625 59.49609375 C43.12140625 59.49609375 33.55140625 59.49609375 23.69140625 59.49609375 C23.75329329 70.65161415 23.75329329 70.65161415 23.8515625 81.80664062 C23.89975132 86.36222606 23.94385031 90.91757356 23.96240234 95.47338867 C23.97764448 99.15007795 24.01222117 102.82614107 24.05971527 106.50255013 C24.07445186 107.8989725 24.0824428 109.29548431 24.0832901 110.69198418 C24.08339067 122.18378399 24.08339067 122.18378399 28.69140625 132.49609375 C32.23955696 134.86152756 33.86396757 134.76532688 38.06640625 134.74609375 C39.18789063 134.75125 40.309375 134.75640625 41.46484375 134.76171875 C44.63607438 134.50064892 46.8002127 133.74894429 49.69140625 132.49609375 C53.17527722 132.97996472 53.17527722 132.97996472 54.69140625 134.49609375 C54.97070065 137.73760154 54.92323805 140.99398677 54.94140625 144.24609375 C54.96203125 145.15359375 54.98265625 146.06109375 55.00390625 146.99609375 C55.05422072 155.59986733 55.05422072 155.59986733 51.69140625 159.49609375 C44.04061848 163.39104025 37.56028421 163.73180524 29.12890625 163.80859375 C28.09443359 163.83759766 27.05996094 163.86660156 25.99414062 163.89648438 C16.00406194 163.97780624 6.84771921 161.7515444 -0.5234375 154.66796875 C-10.5122809 142.51524024 -10.61085936 128.07822435 -10.50390625 113.109375 C-10.50016743 111.55568119 -10.49732457 110.00198499 -10.49533081 108.44828796 C-10.48776269 104.39593786 -10.46817443 100.34373539 -10.44592285 96.29144287 C-10.42531585 92.14158118 -10.41629761 87.99169519 -10.40625 83.84179688 C-10.38492076 75.7264954 -10.35086925 67.61131304 -10.30859375 59.49609375 C-11.42878906 59.5425 -12.54898438 59.58890625 -13.703125 59.63671875 C-15.1757546 59.67423798 -16.64841302 59.71063798 -18.12109375 59.74609375 C-18.85908203 59.77960938 -19.59707031 59.813125 -20.35742188 59.84765625 C-25.83272902 59.94675683 -25.83272902 59.94675683 -28.29605103 57.6138916 C-29.42232158 55.25822472 -29.69528016 53.69299076 -29.70703125 51.08984375 C-29.71089844 50.26355469 -29.71476563 49.43726563 -29.71875 48.5859375 C-29.70714844 47.73128906 -29.69554687 46.87664062 -29.68359375 45.99609375 C-29.69519531 45.14144531 -29.70679688 44.28679687 -29.71875 43.40625 C-29.70254144 39.94302028 -29.56819868 37.15763528 -28.296875 33.91796875 C-25.14130391 31.66133245 -21.8361942 32.07737303 -18.12109375 32.24609375 C-17.37150391 32.26414063 -16.62191406 32.2821875 -15.84960938 32.30078125 C-14.00205665 32.34785266 -12.15516216 32.41959609 -10.30859375 32.49609375 C-10.33477783 31.66883789 -10.36096191 30.84158203 -10.38793945 29.98925781 C-10.49186206 26.24172957 -10.55690864 22.49450425 -10.62109375 18.74609375 C-10.66298828 17.44414062 -10.70488281 16.1421875 -10.74804688 14.80078125 C-10.76416016 13.55039063 -10.78027344 12.3 -10.796875 11.01171875 C-10.82305908 9.85961914 -10.84924316 8.70751953 -10.8762207 7.52050781 C-10.30859375 4.49609375 -10.30859375 4.49609375 -8.10986328 2.11987305 C-5.07797435 0.36241329 -3.46709174 -0.0071448 0 0 Z " fill="#7131A0" transform="translate(818.30859375,157.50390625)"/>
<path d="M0 0 C2.83425171 3.06425529 3.37680355 5.11448213 3.36328125 9.24609375 C3.36231445 10.74946289 3.36231445 10.74946289 3.36132812 12.28320312 C3.34521484 13.32412109 3.32910156 14.36503906 3.3125 15.4375 C3.31572266 16.47455078 3.31894531 17.51160156 3.32226562 18.58007812 C3.28681916 23.5973636 3.09785537 27.37365212 1 32 C-6.75 32.125 -6.75 32.125 -9 31 C-15.47246999 30.23725101 -20.71411035 30.42894081 -26.0859375 34.30859375 C-31.81958508 39.375266 -38.54257266 45.6093017 -39.36508179 53.50430298 C-39.37620032 54.86562215 -39.37116311 56.22713514 -39.35302734 57.58837891 C-39.35518753 58.33531509 -39.35734772 59.08225128 -39.35957336 59.8518219 C-39.36265183 61.4668953 -39.35907964 63.08199228 -39.34955978 64.69704056 C-39.33579783 67.25249849 -39.3422711 69.80718205 -39.35440063 72.36264038 C-39.38533961 79.6252763 -39.38043324 86.88772969 -39.36035156 94.15039062 C-39.34945283 98.59783125 -39.36257888 103.04468707 -39.39024734 107.49204636 C-39.39569615 109.18654388 -39.39160293 110.88109961 -39.37784958 112.57555008 C-39.35886319 114.94115632 -39.37015833 117.30483854 -39.38818359 119.67041016 C-39.36817543 120.72245888 -39.36817543 120.72245888 -39.34776306 121.79576111 C-39.38095093 123.74966431 -39.38095093 123.74966431 -40 127 C-42.41323853 128.89559937 -42.41323853 128.89559937 -45 130 C-45.66 130.33 -46.32 130.66 -47 131 C-50.26521879 131.23911448 -53.53948929 131.18519344 -56.8125 131.1875 C-58.16698242 131.20586914 -58.16698242 131.20586914 -59.54882812 131.22460938 C-67.99368058 131.24322404 -67.99368058 131.24322404 -72 129 C-74 127 -74 127 -74.24609566 124.81735039 C-74.24425207 123.90477533 -74.24240849 122.99220028 -74.24050903 122.05197144 C-74.24325836 121.005867 -74.24600769 119.95976257 -74.24884033 118.88195801 C-74.24164978 117.72965698 -74.23445923 116.57735596 -74.22705078 115.39013672 C-74.22734283 114.18040192 -74.22763489 112.97066711 -74.22793579 111.72427368 C-74.2267791 108.40208714 -74.21673127 105.08014749 -74.20278788 101.75800467 C-74.19030678 98.28798744 -74.18911209 94.81796712 -74.18673706 91.34793091 C-74.18051456 84.77476213 -74.16409338 78.20165967 -74.14403808 71.62852013 C-74.12170298 64.1461587 -74.11069167 56.66379414 -74.10064721 49.18140769 C-74.07972779 33.78756668 -74.04453692 18.39379188 -74 3 C-69.15881281 0.41054772 -65.44872465 -0.46717767 -60 -0.375 C-58.97132813 -0.39240234 -58.97132813 -0.39240234 -57.921875 -0.41015625 C-53.07768809 -0.38242236 -48.55614445 0.44385555 -45 4 C-44.76472227 6.34987262 -44.58613583 8.70556039 -44.4375 11.0625 C-44.31181641 12.99802734 -44.31181641 12.99802734 -44.18359375 14.97265625 C-44.12300781 15.97167969 -44.06242188 16.97070312 -44 18 C-43.29875 17.20335937 -42.5975 16.40671875 -41.875 15.5859375 C-30.66765942 3.00691675 -17.92045404 -7.9148672 0 0 Z " fill="#7132A1" transform="translate(779,189)"/>
<path d="M0 0 C2.11792405 3.17688607 2.25559824 3.99804537 2.265625 7.640625 C2.26949219 8.99994141 2.26949219 8.99994141 2.2734375 10.38671875 C2.26570313 11.33160156 2.25796875 12.27648437 2.25 13.25 C2.26160156 14.64412109 2.26160156 14.64412109 2.2734375 16.06640625 C2.25824815 21.43584223 1.76690784 25.92364572 0 31 C-7.75 31.125 -7.75 31.125 -10 30 C-16.47246999 29.23725101 -21.71411035 29.42894081 -27.0859375 33.30859375 C-32.81958508 38.375266 -39.54257266 44.6093017 -40.36508179 52.50430298 C-40.37620032 53.86562215 -40.37116311 55.22713514 -40.35302734 56.58837891 C-40.35518753 57.33531509 -40.35734772 58.08225128 -40.35957336 58.8518219 C-40.36265183 60.4668953 -40.35907964 62.08199228 -40.34955978 63.69704056 C-40.33579783 66.25249849 -40.3422711 68.80718205 -40.35440063 71.36264038 C-40.38533961 78.6252763 -40.38043324 85.88772969 -40.36035156 93.15039062 C-40.34945283 97.59783125 -40.36257888 102.04468707 -40.39024734 106.49204636 C-40.39569615 108.18654388 -40.39160293 109.88109961 -40.37784958 111.57555008 C-40.35886319 113.94115632 -40.37015833 116.30483854 -40.38818359 118.67041016 C-40.36817543 119.72245888 -40.36817543 119.72245888 -40.34776306 120.79576111 C-40.38095093 122.74966431 -40.38095093 122.74966431 -41 126 C-43.41323853 127.89559937 -43.41323853 127.89559937 -46 129 C-46.66 129.33 -47.32 129.66 -48 130 C-51.26521879 130.23911448 -54.53948929 130.18519344 -57.8125 130.1875 C-59.16698242 130.20586914 -59.16698242 130.20586914 -60.54882812 130.22460938 C-68.99368058 130.24322404 -68.99368058 130.24322404 -73 128 C-75 126 -75 126 -75.24609566 123.81735039 C-75.24425207 122.90477533 -75.24240849 121.99220028 -75.24050903 121.05197144 C-75.24325836 120.005867 -75.24600769 118.95976257 -75.24884033 117.88195801 C-75.24164978 116.72965698 -75.23445923 115.57735596 -75.22705078 114.39013672 C-75.22734283 113.18040192 -75.22763489 111.97066711 -75.22793579 110.72427368 C-75.2267791 107.40208714 -75.21673127 104.08014749 -75.20278788 100.75800467 C-75.19030678 97.28798744 -75.18911209 93.81796712 -75.18673706 90.34793091 C-75.18051456 83.77476213 -75.16409338 77.20165967 -75.14403808 70.62852013 C-75.12170298 63.1461587 -75.11069167 55.66379414 -75.10064721 48.18140769 C-75.07972779 32.78756668 -75.04453692 17.39379188 -75 2 C-69.81827128 -0.34078542 -66.26217828 -1.41084417 -60.4375 -1.375 C-58.54837891 -1.38660156 -58.54837891 -1.38660156 -56.62109375 -1.3984375 C-52.60185679 -0.95619136 -48.9455993 0.0544007 -46 3 C-45.76472227 5.34987262 -45.58613583 7.70556039 -45.4375 10.0625 C-45.31181641 11.99802734 -45.31181641 11.99802734 -45.18359375 13.97265625 C-45.12300781 14.97167969 -45.06242187 15.97070312 -45 17 C-44.29875 16.20335937 -43.5975 15.40671875 -42.875 14.5859375 C-31.13936281 1.40930027 -18.17198192 -8.92079113 0 0 Z " fill="#7131A0" transform="translate(1545,190)"/>
<path d="M0 0 C1.74603516 0.49113281 1.74603516 0.49113281 3.52734375 0.9921875 C10.46437693 2.53375043 17.50066174 2.2134503 24.5625 2.125 C25.96679047 2.11494735 27.37108793 2.10582555 28.77539062 2.09765625 C32.18377485 2.07423093 35.591795 2.04142746 39 2 C37.70592007 4.80180512 36.29663566 7.00728403 34.25 9.3125 C33.7240625 9.91320312 33.198125 10.51390625 32.65625 11.1328125 C31.55208333 12.37760417 30.44791667 13.62239583 29.34375 14.8671875 C28.8178125 15.46789062 28.291875 16.06859375 27.75 16.6875 C27.27046875 17.22761719 26.7909375 17.76773438 26.296875 18.32421875 C23.41687653 22.04566256 22.54511003 25.13618591 22.6875 29.90625 C23.2566435 33.71951143 24.68345034 35.89094651 27 39 C31.33624363 41.98719005 34.7924678 42.55794988 40 42 C44.72429298 40.07018271 47.28745111 37.90373479 50.375 33.875 C54.40419784 28.73760173 58.61686221 23.83697767 63 19 C68.77956714 23.07384962 73.95248104 27.63777178 79.1484375 32.42578125 C83.62071607 36.46308478 88.3153767 40.21379761 93 44 C95.19416359 45.78366829 97.38023828 47.57679791 99.5625 49.375 C100.55378906 50.18710938 101.54507812 50.99921875 102.56640625 51.8359375 C105.94358829 54.83908172 106.93434193 56.32153331 107.375 60.875 C107.28349961 65.01539255 106.00506123 67.08332292 103 70 C100.04335481 71.4783226 97.25770263 71.06032783 94 71 C94.103125 71.721875 94.20625 72.44375 94.3125 73.1875 C94 76 94 76 91.875 78.75 C88.75843321 81.18905227 86.89624082 81.72816925 83 82 C82.9175 82.7425 82.835 83.485 82.75 84.25 C81.82464634 87.64296341 80.79514357 88.88475622 78 91 C74.75 91.75 74.75 91.75 72 92 C71.9071875 93.36125 71.9071875 93.36125 71.8125 94.75 C71 98 71 98 68.875 100.375 C65.26027477 102.41810556 63.0964472 102.52136601 59 102 C56.5625 100.5 56.5625 100.5 55 99 C56.37029288 96.02110244 57.99157885 93.65895267 60.0625 91.125 C62.60495011 87.766224 64.09669552 85.35129852 64 81 C62.39588152 77.47093933 61.25840638 76.17227092 58 74 C57.01 73.9175 56.02 73.835 55 73.75 C54.01 73.5025 53.02 73.255 52 73 C50.3125 70.0625 50.3125 70.0625 49 67 C46.12351775 64.70383036 46.12351775 64.70383036 42.5625 64.875 C39 64 39 64 37.76171875 62.23046875 C37.09979642 60.81206375 36.48394539 59.37100901 35.921875 57.91015625 C35.03293705 55.65489048 35.03293705 55.65489048 32 54 C30.52313889 53.90752619 29.04224499 53.87000929 27.5625 53.875 C25.1484375 53.67578125 25.1484375 53.67578125 23 53 C21.51572925 51.03399225 20.74653094 49.2345955 19.94921875 46.91015625 C18.70258644 44.4015011 17.60952399 43.93096532 15 43 C10.11700646 42.15657384 6.90366398 42.39176463 2.75 45.1875 C1.8425 46.115625 0.935 47.04375 0 48 C-1.66544879 49.66788366 -3.33193454 51.3347333 -5 53 C-7.12781917 50.56494843 -9.2517568 48.12654203 -11.375 45.6875 C-11.97828125 44.99720703 -12.5815625 44.30691406 -13.203125 43.59570312 C-13.78320312 42.92861328 -14.36328125 42.26152344 -14.9609375 41.57421875 C-15.49509277 40.96151123 -16.02924805 40.34880371 -16.57958984 39.7175293 C-20.045077 35.52713704 -20.045077 35.52713704 -19.7956543 32.61035156 C-18.94246717 29.81124852 -17.82694068 27.70880592 -16.26953125 25.234375 C-15.71330078 24.34363281 -15.15707031 23.45289063 -14.58398438 22.53515625 C-13.99939453 21.61605469 -13.41480469 20.69695312 -12.8125 19.75 C-12.24724609 18.84636719 -11.68199219 17.94273437 -11.09960938 17.01171875 C-7.49684488 11.27535832 -3.78775756 5.61570609 0 0 Z " fill="#020202" transform="translate(1644,197)"/>
<path d="M0 0 C0.98355849 3.06110696 1.96106019 6.1241156 2.9375 9.1875 C3.21529297 10.05181641 3.49308594 10.91613281 3.77929688 11.80664062 C4.18051758 13.06831055 4.18051758 13.06831055 4.58984375 14.35546875 C4.83597412 15.12528076 5.08210449 15.89509277 5.33569336 16.68823242 C7.10651751 22.8506484 8.21326747 28.81438166 5.5625 34.875 C-1.78492277 48.00441526 -17.31458458 56.71387771 -31 62 C-32.28070988 62.54639453 -33.56056972 63.09478337 -34.83984375 63.64453125 C-51.73517912 70.76274546 -67.72523981 73.35158174 -86 73.5625 C-86.70424103 73.57739471 -87.40848206 73.59228943 -88.13406372 73.6076355 C-97.49192935 73.77152608 -105.85553818 73.04172962 -114 68 C-121.22773031 59.99709016 -123.45742916 46.43639876 -125 36 C-113.14287844 35.7800843 -101.32722126 36.52106729 -89.4921875 37.14550781 C-84.15172193 37.42508347 -78.81135037 37.67693758 -73.46783447 37.89077759 C-71.12196633 37.99460196 -68.78066087 38.13556921 -66.43701172 38.2800293 C-57.62769426 38.71024533 -52.31048034 37.68875802 -45.625 31.8125 C-44.01944644 30.51932057 -42.41264388 29.22769051 -40.8046875 27.9375 C-40.00901367 27.27878906 -39.21333984 26.62007812 -38.39355469 25.94140625 C-34.63487926 22.89275397 -30.69662589 20.11059194 -26.75 17.3125 C-22.35233102 14.16036343 -17.97118907 10.99133266 -13.64453125 7.7421875 C-12.95584961 7.22744873 -12.26716797 6.71270996 -11.55761719 6.18237305 C-10.26076877 5.2106889 -8.96818272 4.2332806 -7.68066406 3.24926758 C-3.33366271 0 -3.33366271 0 0 0 Z " fill="#020202" transform="translate(167,100)"/>
<path d="M0 0 C7.80868879 4.69045401 11.93972436 11.23295065 14.375 19.9375 C17.03445421 36.36975682 17.52020143 55.31630304 8.25390625 69.73828125 C4.25782265 74.41560988 -1.52254034 77.88810507 -7.625 78.9375 C-16.66929667 79.44587223 -24.53891103 79.69142981 -31.8125 73.75 C-40.39436004 65.64859158 -42.47212742 55.62914838 -42.9140625 44.1796875 C-43.23540504 29.25186568 -43.32512084 15.50634352 -32.625 3.9375 C-23.68816298 -3.17917388 -10.49736904 -4.88808787 0 0 Z " fill="#FEFDFE" transform="translate(627.625,216.0625)"/>
<path d="M0 0 C7.64192694 5.39620211 9.60054762 12.48910749 11.84765625 21.3046875 C12.02345215 21.94341797 12.19924805 22.58214844 12.38037109 23.24023438 C15.3612422 36.40964193 13.08521404 53.04959504 5.97265625 64.4296875 C2.91914236 68.53720618 -0.52752364 71.99227744 -5.15234375 74.3046875 C-16.00247299 75.2403537 -22.96552706 72.16608107 -31.15234375 65.3046875 C-31.8484375 64.7775415 -32.54453125 64.25039551 -33.26171875 63.70727539 C-37.97596492 59.4709891 -39.63041359 55.7417091 -40.14234924 49.56469727 C-40.29073035 46.06731983 -40.30819972 42.58502517 -40.25024414 39.08520508 C-40.21492559 36.37347148 -40.2702972 33.67389884 -40.33398438 30.96289062 C-40.41887371 16.55319542 -40.41887371 16.55319542 -34.80859375 10.265625 C-33.29519573 8.90114187 -31.74540975 7.57524978 -30.15234375 6.3046875 C-28.95971714 5.1641911 -27.77105824 4.01949935 -26.58984375 2.8671875 C-18.81458559 -3.44238981 -8.85037693 -5.102603 0 0 Z " fill="#FDFCFE" transform="translate(482.15234375,218.6953125)"/>
<path d="M0 0 C7.4671066 4.54301276 11.25804697 11.63926471 13.38671875 19.9765625 C15.71937577 35.7943608 16.21326165 54.21463927 7.00390625 68.0546875 C3.26752121 72.71049713 -0.25305813 75.59687627 -6.37890625 76.2890625 C-14.0139722 76.59599982 -19.34631385 75.80520998 -25.10107422 70.64160156 C-32.47882095 63.72041494 -36.7355612 59.70816687 -37.09765625 49.234375 C-37.17502356 46.4789305 -37.23998648 43.72379781 -37.29296875 40.96777344 C-37.33942084 39.07420553 -37.40739013 37.18102935 -37.49804688 35.2890625 C-38.31627538 17.89865359 -38.31627538 17.89865359 -32.84429932 11.39852905 C-24.17183141 2.45709121 -12.75867094 -4.99666934 0 0 Z " fill="#FEFDFE" transform="translate(332.61328125,217.0234375)"/>
<path d="M0 0 C2.42818827 0.63104472 4.83359112 1.31807334 7.2409668 2.02416992 C18.61165064 5.10505947 29.10569136 5.98010213 40.5534668 2.52416992 C41.8734668 2.52416992 43.1934668 2.52416992 44.5534668 2.52416992 C46.12340797 4.52148612 47.34169553 6.35685108 48.5925293 8.54370117 C48.95945892 9.15807541 49.32638855 9.77244965 49.70443726 10.40544128 C50.87641797 12.3746242 52.02760531 14.35508433 53.1784668 16.33666992 C53.96095636 17.66104484 54.74479517 18.98462356 55.5300293 20.30737305 C56.97170395 22.73777351 58.4041424 25.17319233 59.8293457 27.61328125 C61.01611491 29.61694158 62.2617088 31.58653292 63.5534668 33.52416992 C63.37792179 37.68458653 60.54120105 40.00753936 57.8034668 42.89916992 C54.95458569 45.93933304 52.14128882 48.94571381 49.5534668 52.21166992 C48.8934668 52.97479492 48.2334668 53.73791992 47.5534668 54.52416992 C45.5534668 54.52416992 45.5534668 54.52416992 43.2487793 52.32104492 C41.91459961 50.9365918 41.91459961 50.9365918 40.5534668 49.52416992 C34.32701781 43.66626464 27.90262944 38.12001665 21.25268555 32.75073242 C18.53758887 30.51107236 15.91333541 28.1977916 13.3034668 25.83666992 C12.49135742 25.10319336 11.67924805 24.3697168 10.8425293 23.61401367 C9.38781293 22.28590231 7.94373216 20.94597329 6.5144043 19.59057617 C3.54039466 16.52507643 3.54039466 16.52507643 -0.38012695 15.60229492 C-3.19087648 16.85623989 -4.62137773 18.57490112 -6.6340332 20.89916992 C-7.41649414 21.7937793 -8.19895508 22.68838867 -9.00512695 23.61010742 C-12.20053402 27.4241453 -15.27768286 31.32626133 -18.3059082 35.27416992 C-21.1895733 38.30517557 -23.83303419 39.23456754 -27.8840332 39.96166992 C-31.71253445 39.30802337 -34.2241797 37.63255978 -36.4465332 34.52416992 C-37.59140456 31.25678424 -37.48629968 28.81676375 -36.4465332 25.52416992 C-34.51512361 22.79462074 -32.37947141 20.51858957 -30.0246582 18.14526367 C-27.38917203 15.46585273 -25.08640712 12.66046851 -22.7590332 9.71166992 C-15.75240407 1.18291102 -11.39940286 -2.21708773 0 0 Z " fill="#030303" transform="translate(1707.446533203125,195.475830078125)"/>
<path d="M0 0 C5.8857749 5.31155296 8.15713347 9.95245301 8.8984375 17.92578125 C8.98930643 26.53106867 8.91271029 34.5844318 2.80859375 41.21875 C-1.3284967 44.88080919 -4.09786654 46.47991389 -9.6875 46.625 C-10.62078125 46.66238281 -11.5540625 46.69976562 -12.515625 46.73828125 C-16.26017632 46.19261802 -18.44355669 44.55795748 -21.4375 42.3125 C-21.46255615 42.91312256 -21.4876123 43.51374512 -21.51342773 44.13256836 C-21.6290528 46.83861437 -21.75192936 49.54428283 -21.875 52.25 C-21.93397461 53.66829102 -21.93397461 53.66829102 -21.99414062 55.11523438 C-22.03603516 56.01435547 -22.07792969 56.91347656 -22.12109375 57.83984375 C-22.17608032 59.08882446 -22.17608032 59.08882446 -22.23217773 60.36303711 C-22.4375 62.3125 -22.4375 62.3125 -23.4375 63.3125 C-25.26865883 63.41101171 -27.10369933 63.44222629 -28.9375 63.4375 C-29.9378125 63.44007813 -30.938125 63.44265625 -31.96875 63.4453125 C-34.4375 63.3125 -34.4375 63.3125 -35.4375 62.3125 C-35.53670863 60.38488183 -35.56549365 58.45360646 -35.56689453 56.5234375 C-35.57004669 55.2854541 -35.57319885 54.0474707 -35.57644653 52.77197266 C-35.57465675 51.41048141 -35.5726058 50.04899049 -35.5703125 48.6875 C-35.57098559 47.30126936 -35.57195566 45.91503883 -35.57321167 44.52880859 C-35.5746884 41.62010578 -35.5725349 38.71143363 -35.56787109 35.80273438 C-35.56217381 32.06653402 -35.56545294 28.33040548 -35.57144356 24.59420776 C-35.57504985 21.73070734 -35.57391027 18.86722407 -35.57131577 16.00372314 C-35.57064668 14.62575268 -35.57147426 13.24778068 -35.57379532 11.86981201 C-35.57632292 9.94706246 -35.57179024 8.02430748 -35.56689453 6.1015625 C-35.56609894 5.00537598 -35.56530334 3.90918945 -35.56448364 2.77978516 C-35.4375 0.3125 -35.4375 0.3125 -34.4375 -0.6875 C-32.91821962 -0.75929964 -31.39582518 -0.77142007 -29.875 -0.75 C-29.04871094 -0.74097656 -28.22242188 -0.73195313 -27.37109375 -0.72265625 C-26.73300781 -0.71105469 -26.09492187 -0.69945312 -25.4375 -0.6875 C-24.7775 0.9625 -24.1175 2.6125 -23.4375 4.3125 C-22.509375 3.508125 -21.58125 2.70375 -20.625 1.875 C-14.92058071 -3.06883005 -6.62591613 -3.25272246 0 0 Z " fill="#FF58E6" transform="translate(1289.4375,389.6875)"/>
<path d="M0 0 C4.7838905 2.92464922 8.66200116 7.11100349 10.4375 12.4375 C10.61310807 15.34798781 10.71468869 18.21299369 10.75 21.125 C10.77900391 21.90294922 10.80800781 22.68089844 10.83789062 23.48242188 C10.91115029 30.23921737 9.12834099 35.31925474 4.69140625 40.4609375 C4.13324219 40.90695312 3.57507812 41.35296875 3 41.8125 C2.44441406 42.27398437 1.88882812 42.73546875 1.31640625 43.2109375 C-5.39521718 47.59232993 -12.86415842 47.07629856 -20.5625 46.4375 C-26.67220097 44.95692829 -29.8948048 41.36357412 -33.43359375 36.33984375 C-35.81797866 32.32186642 -35.72719559 28.76662615 -35.75 24.1875 C-35.76417969 22.90359375 -35.77835938 21.6196875 -35.79296875 20.296875 C-35.33198638 12.57737355 -33.20829392 7.56311965 -27.5625 2.4375 C-20.33252692 -3.40143313 -8.3113968 -3.69929222 0 0 Z " fill="#FF57E6" transform="translate(1557.5625,389.5625)"/>
<path d="M0 0 C4.7838905 2.92464922 8.66200116 7.11100349 10.4375 12.4375 C10.61310807 15.34798781 10.71468869 18.21299369 10.75 21.125 C10.77900391 21.90294922 10.80800781 22.68089844 10.83789062 23.48242188 C10.91115029 30.23921737 9.12834099 35.31925474 4.69140625 40.4609375 C4.13324219 40.90695312 3.57507812 41.35296875 3 41.8125 C2.44441406 42.27398437 1.88882812 42.73546875 1.31640625 43.2109375 C-5.39521718 47.59232993 -12.86415842 47.07629856 -20.5625 46.4375 C-26.67220097 44.95692829 -29.8948048 41.36357412 -33.43359375 36.33984375 C-35.81797866 32.32186642 -35.72719559 28.76662615 -35.75 24.1875 C-35.76417969 22.90359375 -35.77835938 21.6196875 -35.79296875 20.296875 C-35.33198638 12.57737355 -33.20829392 7.56311965 -27.5625 2.4375 C-20.33252692 -3.40143313 -8.3113968 -3.69929222 0 0 Z " fill="#FF57E6" transform="translate(1364.5625,389.5625)"/>
<path d="M0 0 C1.47057839 0.00031709 2.94118001 0.01164091 4.41162109 0.03173828 C5.18565277 0.03456818 5.95968445 0.03739807 6.75717163 0.04031372 C9.23329016 0.05152325 11.70904909 0.07662875 14.18505859 0.10205078 C15.86213671 0.1120796 17.53922049 0.12120562 19.21630859 0.12939453 C23.33103082 0.15146504 27.44548371 0.18599977 31.56005859 0.22705078 C31.58695076 1.7061197 31.60640481 3.18532561 31.62255859 4.66455078 C31.63416016 5.48826172 31.64576172 6.31197266 31.65771484 7.16064453 C31.56005859 9.22705078 31.56005859 9.22705078 30.56005859 10.22705078 C28.85233502 10.3141891 27.1410721 10.33405086 25.43115234 10.32470703 C23.87944336 10.31987305 23.87944336 10.31987305 22.29638672 10.31494141 C21.20777344 10.3065625 20.11916016 10.29818359 18.99755859 10.28955078 C17.35883789 10.2827832 17.35883789 10.2827832 15.68701172 10.27587891 C12.97800428 10.26404918 10.2690248 10.24611309 7.56005859 10.22705078 C7.56005859 15.17705078 7.56005859 20.12705078 7.56005859 25.22705078 C8.99220703 25.21544922 10.42435547 25.20384766 11.89990234 25.19189453 C13.76578646 25.18251823 15.63167198 25.17341786 17.49755859 25.16455078 C18.44308594 25.15617187 19.38861328 25.14779297 20.36279297 25.13916016 C21.71147461 25.13432617 21.71147461 25.13432617 23.08740234 25.12939453 C24.33638306 25.12153931 24.33638306 25.12153931 25.6105957 25.11352539 C27.56005859 25.22705078 27.56005859 25.22705078 28.56005859 26.22705078 C28.69287109 28.03955078 28.69287109 28.03955078 28.68505859 30.22705078 C28.68892578 31.30986328 28.68892578 31.30986328 28.69287109 32.41455078 C28.56005859 34.22705078 28.56005859 34.22705078 27.56005859 35.22705078 C26.07134 35.3137451 24.5786136 35.33408572 23.08740234 35.32470703 C22.18828125 35.32148438 21.28916016 35.31826172 20.36279297 35.31494141 C18.94450195 35.30237305 18.94450195 35.30237305 17.49755859 35.28955078 C16.54816406 35.28503906 15.59876953 35.28052734 14.62060547 35.27587891 C12.26706328 35.26405206 9.91355328 35.24611599 7.56005859 35.22705078 C7.56005859 41.16705078 7.56005859 47.10705078 7.56005859 53.22705078 C15.48005859 53.22705078 23.40005859 53.22705078 31.56005859 53.22705078 C31.56005859 56.52705078 31.56005859 59.82705078 31.56005859 63.22705078 C26.61215682 63.27641588 21.66439777 63.31275347 16.71630859 63.33691406 C15.03236393 63.34698395 13.3484368 63.36064066 11.66455078 63.37792969 C9.24686359 63.40213504 6.82940716 63.41352375 4.41162109 63.42236328 C3.65636139 63.43268585 2.90110168 63.44300842 2.12295532 63.4536438 C0.26711879 63.45404396 -1.58813421 63.34927794 -3.43994141 63.22705078 C-6.09602894 60.57096324 -5.69304403 59.32400219 -5.69873047 55.61572266 C-5.70503479 54.44110474 -5.71133911 53.26648682 -5.71783447 52.05627441 C-5.71378601 50.78231812 -5.70973755 49.50836182 -5.70556641 48.19580078 C-5.70747986 46.89380737 -5.70939331 45.59181396 -5.71136475 44.25036621 C-5.71431532 41.4930345 -5.71002065 38.7358323 -5.70068359 35.97851562 C-5.68928894 32.44078005 -5.69584879 28.90334791 -5.70782852 25.36562347 C-5.71678534 21.99649144 -5.71051781 18.62744144 -5.70556641 15.25830078 C-5.70961487 13.98434448 -5.71366333 12.71038818 -5.71783447 11.39782715 C-5.71153015 10.22320923 -5.70522583 9.04859131 -5.69873047 7.83837891 C-5.69713928 6.80072388 -5.6955481 5.76306885 -5.69390869 4.69396973 C-5.27213665 0.59707422 -3.98301193 0.26289575 0 0 Z " fill="#FF54E6" transform="translate(1166.43994140625,371.77294921875)"/>
<path d="M0 0 C0.75728394 0.00202423 1.51456787 0.00404846 2.2947998 0.00613403 C3.06787476 0.00517731 3.84094971 0.00422058 4.63745117 0.00323486 C6.27502524 0.00255313 7.91260199 0.00440697 9.5501709 0.00857544 C12.06536901 0.01392382 14.58038854 0.00863027 17.09558105 0.00222778 C18.68282103 0.00288857 20.2700609 0.00416973 21.8572998 0.00613403 C22.99322571 0.00309769 22.99322571 0.00309769 24.15209961 0 C29.46109849 0.02399522 29.46109849 0.02399522 30.5760498 1.13894653 C30.7088623 2.95144653 30.7088623 2.95144653 30.7010498 5.13894653 C30.70491699 6.22175903 30.70491699 6.22175903 30.7088623 7.32644653 C30.5760498 9.13894653 30.5760498 9.13894653 29.5760498 10.13894653 C27.86832623 10.22608485 26.15706332 10.24594661 24.44714355 10.23660278 C22.89543457 10.2317688 22.89543457 10.2317688 21.31237793 10.22683716 C20.22376465 10.21845825 19.13515137 10.21007935 18.0135498 10.20144653 C16.3748291 10.19467896 16.3748291 10.19467896 14.70300293 10.18777466 C11.99399549 10.17594493 9.28501601 10.15800884 6.5760498 10.13894653 C6.5760498 15.08894653 6.5760498 20.03894653 6.5760498 25.13894653 C13.1760498 25.13894653 19.7760498 25.13894653 26.5760498 25.13894653 C26.5760498 28.43894653 26.5760498 31.73894653 26.5760498 35.13894653 C19.9760498 35.13894653 13.3760498 35.13894653 6.5760498 35.13894653 C6.5760498 41.07894653 6.5760498 47.01894653 6.5760498 53.13894653 C8.22476074 53.12734497 9.87347168 53.11574341 11.57214355 53.10379028 C13.71927785 53.09441415 15.86641335 53.08531376 18.0135498 53.07644653 C19.10216309 53.06806763 20.19077637 53.05968872 21.31237793 53.05105591 C22.34685059 53.04783325 23.38132324 53.0446106 24.44714355 53.04129028 C25.40548096 53.03605347 26.36381836 53.03081665 27.35119629 53.02542114 C29.5760498 53.13894653 29.5760498 53.13894653 30.5760498 54.13894653 C30.7088623 55.95144653 30.7088623 55.95144653 30.7010498 58.13894653 C30.70491699 59.22175903 30.70491699 59.22175903 30.7088623 60.32644653 C30.5760498 62.13894653 30.5760498 62.13894653 29.5760498 63.13894653 C26.99415534 63.23986129 24.4395848 63.27866152 21.8572998 63.27175903 C20.69768738 63.27319412 20.69768738 63.27319412 19.51464844 63.2746582 C17.87707437 63.27533994 16.23949762 63.2734861 14.60192871 63.26931763 C12.0867306 63.26396925 9.57171107 63.2692628 7.05651855 63.27566528 C5.46927857 63.2750045 3.88203871 63.27372334 2.2947998 63.27175903 C1.53751587 63.27378326 0.78023193 63.2758075 0 63.27789307 C-5.30899888 63.25389785 -5.30899888 63.25389785 -6.4239502 62.13894653 C-6.52310814 60.24195805 -6.55194333 58.34125866 -6.55334473 56.44168091 C-6.55649689 55.22371826 -6.55964905 54.00575562 -6.56289673 52.75088501 C-6.56110695 51.41148849 -6.55905599 50.07209229 -6.5567627 48.73269653 C-6.55743579 47.36888614 -6.55840586 46.00507585 -6.55966187 44.64126587 C-6.56113857 41.77964132 -6.55898516 38.91804794 -6.55432129 36.056427 C-6.548624 32.38076039 -6.55190315 28.7051668 -6.55789375 25.02950287 C-6.5615001 22.2123255 -6.56036044 19.39516555 -6.55776596 16.57798767 C-6.5570969 15.2223459 -6.5579244 13.86670257 -6.56024551 12.51106262 C-6.56277321 10.61944609 -6.55824033 8.72782404 -6.55334473 6.83621216 C-6.55254913 5.75779053 -6.55175354 4.6793689 -6.55093384 3.56826782 C-6.31402098 -0.96410687 -3.97527067 0.01796713 0 0 Z " fill="#FF55E6" transform="translate(1607.4239501953125,371.8610534667969)"/>
<path d="M0 0 C5.30964412 3.07243452 8.51372346 7.24038913 10.4609375 13.08203125 C10.57923187 14.93347575 10.63608611 16.78935263 10.6484375 18.64453125 C10.66261719 19.61519531 10.67679688 20.58585937 10.69140625 21.5859375 C10.4609375 24.08203125 10.4609375 24.08203125 8.4609375 26.08203125 C5.66357422 26.30908203 5.66357422 26.30908203 2.140625 26.27734375 C0.25537109 26.26767578 0.25537109 26.26767578 -1.66796875 26.2578125 C-2.98667969 26.24105469 -4.30539062 26.22429687 -5.6640625 26.20703125 C-7.00389971 26.19700108 -8.34374402 26.18787529 -9.68359375 26.1796875 C-12.96892823 26.156052 -16.25390715 26.12310359 -19.5390625 26.08203125 C-19.08763369 27.37612717 -18.62765229 28.66724184 -18.1640625 29.95703125 C-17.90882812 30.67632812 -17.65359375 31.395625 -17.390625 32.13671875 C-16.60028467 34.26361119 -16.60028467 34.26361119 -14.5390625 36.08203125 C-8.66440691 37.45907717 -3.31752925 37.162379 2.453125 35.5546875 C4.4609375 35.08203125 4.4609375 35.08203125 8.4609375 35.08203125 C8.89461438 40.37288923 8.89461438 40.37288923 8.4609375 43.08203125 C2.03923958 48.61182668 -7.58102994 47.62125127 -15.57373047 47.265625 C-20.79984338 46.77742166 -24.08191809 44.4604111 -27.8515625 40.89453125 C-32.60120973 32.97845253 -33.87161337 24.66214678 -32.03515625 15.59375 C-30.13956297 9.14873286 -26.916409 4.27297344 -21.1015625 0.70703125 C-14.69783248 -2.17282456 -6.58328295 -2.38010999 0 0 Z " fill="#FF57E6" transform="translate(1762.5390625,388.91796875)"/>
<path d="M0 0 C5.30964412 3.07243452 8.51372346 7.24038913 10.4609375 13.08203125 C10.57923187 14.93347575 10.63608611 16.78935263 10.6484375 18.64453125 C10.66261719 19.61519531 10.67679688 20.58585937 10.69140625 21.5859375 C10.4609375 24.08203125 10.4609375 24.08203125 8.4609375 26.08203125 C5.66357422 26.30908203 5.66357422 26.30908203 2.140625 26.27734375 C0.25537109 26.26767578 0.25537109 26.26767578 -1.66796875 26.2578125 C-2.98667969 26.24105469 -4.30539062 26.22429687 -5.6640625 26.20703125 C-7.00389971 26.19700108 -8.34374402 26.18787529 -9.68359375 26.1796875 C-12.96892823 26.156052 -16.25390715 26.12310359 -19.5390625 26.08203125 C-19.08763369 27.37612717 -18.62765229 28.66724184 -18.1640625 29.95703125 C-17.90882812 30.67632812 -17.65359375 31.395625 -17.390625 32.13671875 C-16.60028467 34.26361119 -16.60028467 34.26361119 -14.5390625 36.08203125 C-8.66440691 37.45907717 -3.31752925 37.162379 2.453125 35.5546875 C4.4609375 35.08203125 4.4609375 35.08203125 8.4609375 35.08203125 C8.89461438 40.37288923 8.89461438 40.37288923 8.4609375 43.08203125 C2.03923958 48.61182668 -7.58102994 47.62125127 -15.57373047 47.265625 C-20.79984338 46.77742166 -24.08191809 44.4604111 -27.8515625 40.89453125 C-32.60120973 32.97845253 -33.87161337 24.66214678 -32.03515625 15.59375 C-30.13956297 9.14873286 -26.916409 4.27297344 -21.1015625 0.70703125 C-14.69783248 -2.17282456 -6.58328295 -2.38010999 0 0 Z " fill="#FF57E6" transform="translate(1448.5390625,388.91796875)"/>
<path d="M0 0 C3.25716774 1.45593577 4.18288612 3.85718978 5.92382812 6.92114258 C6.27652771 7.53258118 6.62922729 8.14401978 6.99261475 8.77398682 C8.12247448 10.7382371 9.23451232 12.71190698 10.34570312 14.68676758 C11.44196849 16.60899295 12.5418691 18.52909887 13.64245605 20.44885254 C14.37084096 21.72053895 15.09716614 22.99340735 15.82141113 24.26745605 C18.95013933 29.75214791 22.2706418 35.10271027 25.65332031 40.43383789 C27.09570312 42.93676758 27.09570312 42.93676758 27.09570312 44.93676758 C26.14308594 45.47946289 25.19046875 46.0221582 24.20898438 46.58129883 C22.94204069 47.30392597 21.67511453 48.02658385 20.40820312 48.74926758 C19.78236328 49.10569336 19.15652344 49.46211914 18.51171875 49.8293457 C17.89619141 50.18061523 17.28066406 50.53188477 16.64648438 50.89379883 C16.03756348 51.23749512 15.42864258 51.58119141 14.80126953 51.93530273 C13.31021497 52.81081173 11.874481 53.77917634 10.45117188 54.76098633 C7.44327167 56.26244232 6.25576342 55.96710963 3.09570312 54.93676758 C1.50927734 53.18115234 1.50927734 53.18115234 0.15039062 50.87817383 C-0.36442871 50.02537842 -0.87924805 49.17258301 -1.40966797 48.29394531 C-2.21138428 46.91057983 -2.21138428 46.91057983 -3.02929688 45.49926758 C-4.16959909 43.58501276 -5.31023033 41.67095391 -6.45117188 39.75708008 C-7.02287109 38.78673828 -7.59457031 37.81639648 -8.18359375 36.81665039 C-9.8226481 34.07342039 -11.5122917 31.37191215 -13.23242188 28.67895508 C-13.74659668 27.86740967 -14.26077148 27.05586426 -14.79052734 26.21972656 C-15.76600206 24.68292998 -16.74914664 23.15096894 -17.74072266 21.62451172 C-18.17368652 20.93220459 -18.60665039 20.23989746 -19.05273438 19.52661133 C-19.43606934 18.9271167 -19.8194043 18.32762207 -20.21435547 17.70996094 C-21.11279481 15.40091462 -20.77178423 14.22269382 -19.90429688 11.93676758 C-17.5268693 9.56554738 -14.69225081 7.79691955 -11.90429688 5.93676758 C-11.04191406 5.35797852 -10.17953125 4.77918945 -9.29101562 4.18286133 C-2.60467859 -0.08648869 -2.60467859 -0.08648869 0 0 Z " fill="#040404" transform="translate(1773.904296875,176.063232421875)"/>
<path d="M0 0 C5.22095608 0.85318615 8.81399523 2.98946466 13.25 5.75 C13.9821875 6.18054688 14.714375 6.61109375 15.46875 7.0546875 C16.16484375 7.48523438 16.8609375 7.91578125 17.578125 8.359375 C18.21137695 8.74577148 18.84462891 9.13216797 19.49707031 9.53027344 C21.66386477 11.64919849 21.91661994 12.97936771 22 16 C20.6640625 18.96337891 20.6640625 18.96337891 18.625 22.2265625 C18.08178101 23.10905167 18.08178101 23.10905167 17.52758789 24.0093689 C16.36531814 25.89009819 15.18314943 27.75735204 14 29.625 C13.23434275 30.85724483 12.4700065 32.0903115 11.70703125 33.32421875 C10.20851791 35.74288175 8.69452261 38.15070526 7.16796875 40.55175781 C5.75054393 42.78619232 4.39297826 45.03248437 3.05078125 47.31542969 C2.45652344 48.31219727 1.86226562 49.30896484 1.25 50.3359375 C0.73953125 51.21556152 0.2290625 52.09518555 -0.296875 53.00146484 C-2 55 -2 55 -4.4921875 55.88818359 C-8.28407699 56.05725343 -10.89005018 54.19039604 -14 52.25 C-14.60328125 51.8890625 -15.2065625 51.528125 -15.828125 51.15625 C-17.55994478 50.11715813 -19.2802374 49.0589279 -21 48 C-22.6658843 46.9986972 -24.33221954 45.99814133 -26 45 C-24.40747631 40.5782055 -22.15026012 36.64436203 -19.75 32.625 C-19.32541504 31.90836182 -18.90083008 31.19172363 -18.46337891 30.45336914 C-12.39647442 20.24974336 -6.19434491 10.1265591 0 0 Z " fill="#050505" transform="translate(1620,176)"/>
<path d="M0 0 C6.57748838 3.89279925 10.37689824 7.71182519 13.0625 14.8125 C14.28253466 19.69263864 14.0625 23.58130841 14.0625 28.8125 C-2.4375 28.8125 -18.9375 28.8125 -35.9375 28.8125 C-35.9375 19.89186912 -34.58094194 12.58217984 -28.78125 5.57421875 C-21.15000266 -1.71750276 -9.92559801 -3.79895676 0 0 Z " fill="#FDFCFD" transform="translate(1256.9375,212.1875)"/>
<path d="M0 0 C4.58275042 3.19809873 7.86488049 7.21943171 10.44140625 12.1484375 C11.30891474 17.16070875 11.00390625 22.31164735 11.00390625 27.3984375 C-5.49609375 27.3984375 -21.99609375 27.3984375 -38.99609375 27.3984375 C-38.99609375 17.69441426 -36.76461362 10.11709611 -29.89453125 3.05859375 C-21.5560995 -4.23324472 -9.87796373 -5.12999221 0 0 Z " fill="#FDFCFD" transform="translate(1397.99609375,213.6015625)"/>
<path d="M0 0 C4.1482326 -0.60411154 7.87923537 -0.87250884 12 0 C14.90955129 2.94261437 16.40660036 6.21710877 18 10 C18.659479 11.33690301 19.32342038 12.67166938 20 14 C20.56589844 13.07316406 21.13179687 12.14632813 21.71484375 11.19140625 C22.45565576 9.98172588 23.19654518 8.77209291 23.9375 7.5625 C24.31068359 6.95083984 24.68386719 6.33917969 25.06835938 5.70898438 C27.88671875 1.11328125 27.88671875 1.11328125 29 0 C30.85287502 -0.07226502 32.70833878 -0.0838122 34.5625 -0.0625 C35.57441406 -0.05347656 36.58632812 -0.04445313 37.62890625 -0.03515625 C38.41136719 -0.02355469 39.19382812 -0.01195312 40 0 C39.38487912 5.82086611 36.05141 10.32586047 33.0625 15.20507812 C32.65773438 15.89150391 32.25296875 16.57792969 31.8359375 17.28515625 C31.46001465 17.90269775 31.0840918 18.52023926 30.69677734 19.15649414 C29.78876798 21.5588693 30.10730679 22.61279147 31 25 C31.7282128 26.43147286 32.50595635 27.83837575 33.3203125 29.22265625 C33.99900391 30.40118164 33.99900391 30.40118164 34.69140625 31.60351562 C35.6508199 33.24915838 36.61439918 34.8923793 37.58203125 36.53320312 C38.25685547 37.70979492 38.25685547 37.70979492 38.9453125 38.91015625 C39.36312988 39.62308838 39.78094727 40.33602051 40.21142578 41.07055664 C41 43 41 43 40 46 C35.90322376 46.4704432 32.07832679 46.69746842 28 46 C25.43586772 43.71892128 24.32139174 41.12381643 23 38 C22.401875 37.05125 21.80375 36.1025 21.1875 35.125 C20 33 20 33 20 31 C17.15668734 33.50279617 15.62663153 36.28897814 13.875 39.625 C11.08333333 44.91666667 11.08333333 44.91666667 10 46 C8.14712498 46.07226502 6.29166122 46.0838122 4.4375 46.0625 C3.42558594 46.05347656 2.41367188 46.04445313 1.37109375 46.03515625 C0.19740234 46.01775391 0.19740234 46.01775391 -1 46 C-2 43 -2 43 -1.08789062 40.99462891 C-0.61544922 40.24616699 -0.14300781 39.49770508 0.34375 38.7265625 C0.84777344 37.9015625 1.35179687 37.0765625 1.87109375 36.2265625 C2.95351948 34.49779622 4.03943867 32.77121218 5.12890625 31.046875 C5.63292969 30.21929687 6.13695312 29.39171875 6.65625 28.5390625 C7.12869141 27.78834473 7.60113281 27.03762695 8.08789062 26.26416016 C9.2524625 23.37330373 8.9311623 21.94371207 8 19 C7.07501057 16.99329669 7.07501057 16.99329669 5.8984375 15.1171875 C5.49109375 14.42496094 5.08375 13.73273438 4.6640625 13.01953125 C3.79916321 11.58065334 2.93194451 10.14316727 2.0625 8.70703125 C1.45535156 7.67255859 1.45535156 7.67255859 0.8359375 6.6171875 C0.46001465 5.99440918 0.0840918 5.37163086 -0.30322266 4.72998047 C-1 3 -1 3 0 0 Z " fill="#FF57E6" transform="translate(1206,389)"/>
<path d="M0 0 C4.52803544 -0.73538019 8.50887947 -1.0548911 13 0 C16.42026467 3.67402624 20 8.78856449 20 14 C20.66 14 21.32 14 22 14 C22.3403125 13.0409375 22.3403125 13.0409375 22.6875 12.0625 C24.49036929 7.855805 26.74207806 3.9810729 29 0 C32.63 0 36.26 0 40 0 C39.44429263 5.8797425 36.84963723 9.97530484 33.70703125 14.7890625 C31.99397446 17.57661728 31.00866925 19.59850537 30.9375 22.89453125 C32.70040195 28.04713069 35.68006118 32.40775069 38.58203125 36.98632812 C39.03191406 37.71658203 39.48179688 38.44683594 39.9453125 39.19921875 C40.36312988 39.85752686 40.78094727 40.51583496 41.21142578 41.1940918 C42 43 42 43 41 46 C36.71 46 32.42 46 28 46 C25.36 41.05 22.72 36.1 20 31 C18.7625 33.475 17.525 35.95 16.25 38.5 C12.36277445 45.58481782 12.36277445 45.58481782 7.73046875 46.99609375 C4.69621361 46.94210344 1.95564269 46.67514681 -1 46 C-0.44762195 39.94785789 3.37791518 35.21196276 6.58203125 30.23828125 C9.19493858 26.1394323 9.19493858 26.1394323 10.08984375 21.4765625 C8.46460668 17.78337145 6.49847724 14.34047168 4.4375 10.875 C3.5969594 9.45921842 2.76205709 8.04006995 1.93359375 6.6171875 C1.3775647 5.68302002 1.3775647 5.68302002 0.81030273 4.72998047 C0 3 0 3 0 0 Z " fill="#FF57E6" transform="translate(1645,389)"/>
<path d="M0 0 C1.50046875 0.00386719 1.50046875 0.00386719 3.03125 0.0078125 C4.0315625 0.00523437 5.031875 0.00265625 6.0625 0 C8.53125 0.1328125 8.53125 0.1328125 9.53125 1.1328125 C9.60351502 2.98568752 9.6150622 4.84115128 9.59375 6.6953125 C9.58472656 7.70722656 9.57570313 8.71914063 9.56640625 9.76171875 C9.55480469 10.54417969 9.54320312 11.32664062 9.53125 12.1328125 C10.24152344 12.12121094 10.95179687 12.10960937 11.68359375 12.09765625 C12.60269531 12.08863281 13.52179688 12.07960938 14.46875 12.0703125 C15.38527344 12.05871094 16.30179688 12.04710937 17.24609375 12.03515625 C19.53125 12.1328125 19.53125 12.1328125 20.53125 13.1328125 C20.6640625 14.9453125 20.6640625 14.9453125 20.65625 17.1328125 C20.66011719 18.215625 20.66011719 18.215625 20.6640625 19.3203125 C20.53125 21.1328125 20.53125 21.1328125 19.53125 22.1328125 C17.84516034 22.20486761 16.15624341 22.21667318 14.46875 22.1953125 C13.54964844 22.18628906 12.63054687 22.17726563 11.68359375 22.16796875 C10.97332031 22.15636719 10.26304688 22.14476562 9.53125 22.1328125 C9.66967295 26.09144181 9.81824006 30.04962577 9.96875 34.0078125 C10.00806641 35.13574219 10.04738281 36.26367188 10.08789062 37.42578125 C10.12978516 38.50214844 10.17167969 39.57851563 10.21484375 40.6875 C10.25150146 41.68249512 10.28815918 42.67749023 10.32592773 43.70263672 C10.38084532 46.14060751 10.38084532 46.14060751 11.53125 48.1328125 C14.50125 48.1328125 17.47125 48.1328125 20.53125 48.1328125 C20.53125 51.1028125 20.53125 54.0728125 20.53125 57.1328125 C15.13674068 59.83006716 10.47490809 59.91152706 4.53125 59.1328125 C1.07237977 57.53539533 -0.89157984 55.28901306 -2.60498047 51.85668945 C-3.61258349 48.67923697 -3.69563789 46.06948501 -3.6640625 42.73828125 C-3.65761719 41.53623047 -3.65117188 40.33417969 -3.64453125 39.09570312 C-3.62777344 37.84982422 -3.61101562 36.60394531 -3.59375 35.3203125 C-3.58472656 34.05509766 -3.57570313 32.78988281 -3.56640625 31.48632812 C-3.54287394 28.36829686 -3.50999545 25.25065153 -3.46875 22.1328125 C-4.438125 22.1534375 -5.4075 22.1740625 -6.40625 22.1953125 C-9.46875 22.1328125 -9.46875 22.1328125 -10.46875 21.1328125 C-10.6015625 19.3203125 -10.6015625 19.3203125 -10.59375 17.1328125 C-10.59632812 16.4109375 -10.59890625 15.6890625 -10.6015625 14.9453125 C-10.46875 13.1328125 -10.46875 13.1328125 -9.46875 12.1328125 C-7.46916636 12.09200467 -5.46829746 12.09026894 -3.46875 12.1328125 C-3.48035156 11.35035156 -3.49195313 10.56789063 -3.50390625 9.76171875 C-3.51292969 8.74980469 -3.52195312 7.73789062 -3.53125 6.6953125 C-3.54285156 5.68597656 -3.55445313 4.67664063 -3.56640625 3.63671875 C-3.43556944 0.28206296 -3.34731824 0.18007725 0 0 Z " fill="#FF59E6" transform="translate(1496.46875,376.8671875)"/>
<path d="M0 0 C1.90234375 1.10546875 1.90234375 1.10546875 4.58984375 3.10546875 C4.58984375 6.07546875 4.58984375 9.04546875 4.58984375 12.10546875 C3.26984375 12.43546875 1.94984375 12.76546875 0.58984375 13.10546875 C-0.17328125 12.63109375 -0.93640625 12.15671875 -1.72265625 11.66796875 C-5.22513223 9.63164551 -7.41811525 9.5973908 -11.41015625 10.10546875 C-14.31732698 12.32409904 -15.24997268 13.62491804 -16.41015625 17.10546875 C-16.89779637 23.60421112 -17.30384177 29.56445475 -13.41015625 35.10546875 C-10.30062246 36.66023565 -7.84748864 36.39191312 -4.41015625 36.10546875 C-1.19186521 34.18253357 -1.19186521 34.18253357 1.58984375 32.10546875 C2.57984375 32.10546875 3.56984375 32.10546875 4.58984375 32.10546875 C5.76701224 40.52549335 5.76701224 40.52549335 3.265625 43.8828125 C-2.64360618 48.15678473 -9.41443216 47.91935038 -16.41015625 47.10546875 C-21.84337664 45.42610972 -25.26993385 41.74013434 -28.41015625 37.10546875 C-32.0956483 29.97347559 -31.65045752 19.58494967 -29.53515625 11.9453125 C-26.93796576 6.28104509 -23.78060767 3.18850567 -18.41015625 0.10546875 C-12.77592625 -1.77260792 -5.61293649 -2.08324547 0 0 Z " fill="#FF57E6" transform="translate(1719.41015625,388.89453125)"/>
<path d="M0 0 C1.50046875 0.00386719 1.50046875 0.00386719 3.03125 0.0078125 C4.0315625 0.00523437 5.031875 0.00265625 6.0625 0 C8.53125 0.1328125 8.53125 0.1328125 9.53125 1.1328125 C9.63060148 3.15231459 9.65924508 5.17532165 9.66064453 7.19726562 C9.66379669 8.49531128 9.66694885 9.79335693 9.67019653 11.1307373 C9.66840675 12.55851271 9.6663558 13.98628781 9.6640625 15.4140625 C9.66473558 16.86755388 9.66570564 18.32104514 9.66696167 19.77453613 C9.66843846 22.82447377 9.6662847 25.87438216 9.66162109 28.92431641 C9.6559238 32.84211809 9.65920291 36.75985128 9.66519356 40.67765045 C9.66879969 43.68012004 9.66766035 46.68257327 9.66506577 49.68504333 C9.66439664 51.12999988 9.66522442 52.57495789 9.66754532 54.01991272 C9.67007265 56.03606133 9.66554052 58.05221512 9.66064453 60.06835938 C9.65984894 61.21784058 9.65905334 62.36732178 9.65823364 63.55163574 C9.53125 66.1328125 9.53125 66.1328125 8.53125 67.1328125 C6.70009117 67.23132421 4.86505067 67.26253879 3.03125 67.2578125 C2.0309375 67.26039063 1.030625 67.26296875 0 67.265625 C-2.46875 67.1328125 -2.46875 67.1328125 -3.46875 66.1328125 C-3.56810148 64.11331041 -3.59674508 62.09030335 -3.59814453 60.06835938 C-3.60129669 58.77031372 -3.60444885 57.47226807 -3.60769653 56.1348877 C-3.60590675 54.70711229 -3.6038558 53.27933719 -3.6015625 51.8515625 C-3.60223558 50.39807112 -3.60320564 48.94457986 -3.60446167 47.49108887 C-3.60593846 44.44115123 -3.6037847 41.39124284 -3.59912109 38.34130859 C-3.5934238 34.42350691 -3.59670291 30.50577372 -3.60269356 26.58797455 C-3.60629969 23.58550496 -3.60516035 20.58305173 -3.60256577 17.58058167 C-3.60189664 16.13562512 -3.60272442 14.69066711 -3.60504532 13.24571228 C-3.60757265 11.22956367 -3.60304052 9.21340988 -3.59814453 7.19726562 C-3.59734894 6.04778442 -3.59655334 4.89830322 -3.59573364 3.71398926 C-3.42823055 0.30918004 -3.39383552 0.18257976 0 0 Z " fill="#FF5AE7" transform="translate(1310.46875,367.8671875)"/>
<path d="M0 0 C0.9075 0.00257813 1.815 0.00515625 2.75 0.0078125 C4.11125 0.00394531 4.11125 0.00394531 5.5 0 C7.75 0.1328125 7.75 0.1328125 8.75 1.1328125 C8.84935148 3.15231459 8.87799508 5.17532165 8.87939453 7.19726562 C8.88254669 8.49531128 8.88569885 9.79335693 8.88894653 11.1307373 C8.88715675 12.55851271 8.8851058 13.98628781 8.8828125 15.4140625 C8.88348558 16.86755388 8.88445564 18.32104514 8.88571167 19.77453613 C8.88718846 22.82447377 8.8850347 25.87438216 8.88037109 28.92431641 C8.8746738 32.84211809 8.87795291 36.75985128 8.88394356 40.67765045 C8.88754969 43.68012004 8.88641035 46.68257327 8.88381577 49.68504333 C8.88314664 51.12999988 8.88397442 52.57495789 8.88629532 54.01991272 C8.88882265 56.03606133 8.88429052 58.05221512 8.87939453 60.06835938 C8.87859894 61.21784058 8.87780334 62.36732178 8.87698364 63.55163574 C8.75 66.1328125 8.75 66.1328125 7.75 67.1328125 C5.89712498 67.20507752 4.04166122 67.2166247 2.1875 67.1953125 C0.66962891 67.18177734 0.66962891 67.18177734 -0.87890625 67.16796875 C-1.66136719 67.15636719 -2.44382812 67.14476562 -3.25 67.1328125 C-3.27312635 58.5447553 -3.29091658 49.95671101 -3.30181217 41.36863041 C-3.30704036 37.3812405 -3.31413684 33.39387183 -3.32543945 29.40649414 C-3.33627061 25.56156136 -3.34227732 21.71664905 -3.34487724 17.87170219 C-3.34673108 16.40162267 -3.35035091 14.93154432 -3.35573006 13.46147346 C-3.36294355 11.40926783 -3.36399081 9.35714783 -3.36352539 7.30493164 C-3.365746 6.13466934 -3.36796661 4.96440704 -3.37025452 3.75868225 C-3.20679036 0.18928971 -3.20679036 0.18928971 0 0 Z " fill="#FF53E6" transform="translate(1786.25,367.8671875)"/>
<path d="M0 0 C1.051875 -0.02126953 1.051875 -0.02126953 2.125 -0.04296875 C4 0.1875 4 0.1875 6 2.1875 C6.1953125 4.3515625 6.1953125 4.3515625 6.125 6.8125 C6.10695313 7.62976563 6.08890625 8.44703125 6.0703125 9.2890625 C6.04710937 9.91554688 6.02390625 10.54203125 6 11.1875 C3.40858469 11.89218311 1.21560958 12.24352789 -1.5 12.4375 C-5.07126433 12.87693126 -5.07126433 12.87693126 -7.18286133 15.32324219 C-9.35131755 18.74126294 -9.52279505 20.74378024 -9.57421875 24.765625 C-9.60193359 26.00828125 -9.62964844 27.2509375 -9.65820312 28.53125 C-9.66787109 29.8203125 -9.67753906 31.109375 -9.6875 32.4375 C-9.72936584 35.00527145 -9.77473826 37.57298899 -9.82421875 40.140625 C-9.83541748 41.27661133 -9.84661621 42.41259766 -9.8581543 43.58300781 C-10 46.1875 -10 46.1875 -11 47.1875 C-14.63 47.1875 -18.26 47.1875 -22 47.1875 C-22 32.0075 -22 16.8275 -22 1.1875 C-19.03 1.1875 -16.06 1.1875 -13 1.1875 C-12.34 3.1675 -11.68 5.1475 -11 7.1875 C-10.21625 6.218125 -9.4325 5.24875 -8.625 4.25 C-5.94593353 0.93641778 -4.27764668 0.03931661 0 0 Z " fill="#FF55E6" transform="translate(1407,387.8125)"/>
<path d="M0 0 C3.37789967 3.65939131 4.25385118 6.97274306 4.24609375 11.9375 C3.91295064 16.7007376 3.49780605 20.72572166 0.25 24.4375 C-4.13669694 27.19485236 -7.89380612 26.53405991 -12.75 25.4375 C-15.66249849 22.61895307 -16.64978889 19.77300582 -16.953125 15.73046875 C-17.11735996 4.84990271 -17.11735996 4.84990271 -13.75 0.4375 C-9.16453678 -2.28899164 -4.66457626 -2.65032742 0 0 Z " fill="#FFFBFE" transform="translate(1551.75,399.5625)"/>
<path d="M0 0 C3.37789967 3.65939131 4.25385118 6.97274306 4.24609375 11.9375 C3.91295064 16.7007376 3.49780605 20.72572166 0.25 24.4375 C-4.13669694 27.19485236 -7.89380612 26.53405991 -12.75 25.4375 C-15.66249849 22.61895307 -16.64978889 19.77300582 -16.953125 15.73046875 C-17.11735996 4.84990271 -17.11735996 4.84990271 -13.75 0.4375 C-9.16453678 -2.28899164 -4.66457626 -2.65032742 0 0 Z " fill="#FFFBFE" transform="translate(1358.75,399.5625)"/>
<path d="M0 0 C3.32662957 0.68238555 4.47828918 1.74259218 6.4375 4.5 C6.93648538 8.31139893 6.74818443 10.01806686 4.64453125 13.28125 C3.45923828 14.62703125 3.45923828 14.62703125 2.25 16 C1.43015625 16.94617188 0.6103125 17.89234375 -0.234375 18.8671875 C-1.00265625 19.73601562 -1.7709375 20.60484375 -2.5625 21.5 C-3.54658429 22.70433173 -4.52700721 23.91168972 -5.5 25.125 C-8.19271462 28.22570169 -8.86711998 28.44942691 -13 28.75 C-16.5625 28.5 -16.5625 28.5 -18.5 27.4375 C-20.22141584 24.29844758 -19.95216719 22.03586896 -19.5625 18.5 C-17.99966359 15.79023451 -15.99937032 13.59626035 -13.875 11.3125 C-13.07932617 10.40854492 -13.07932617 10.40854492 -12.26757812 9.48632812 C-4.58047602 0.89375142 -4.58047602 0.89375142 0 0 Z " fill="#070707" transform="translate(1655.5625,243.5)"/>
<path d="M0 0 C4.44549719 4.32201115 4.8590333 7.8502579 5.25 13.8125 C5.18267137 18.24777339 4.15972423 22.11620406 2 26 C-0.46056485 28.12117659 -1.69015778 28.00659239 -4.9375 27.9375 C-8.90653522 26.72248922 -10.41311547 25.24113819 -13 22 C-13.50759417 19.08581227 -13.70496569 16.8894271 -13.625 14 C-13.64433594 13.30132812 -13.66367188 12.60265625 -13.68359375 11.8828125 C-13.64644866 7.94543302 -13.12772058 6.15954464 -10.6484375 3.0625 C-7.17818629 0.36000348 -4.35701857 -0.63761247 0 0 Z " fill="#FFFDFE" transform="translate(1280,398)"/>
<path d="M0 0 C2.375 1.625 2.375 1.625 4 4 C4.48030175 7.74945239 4.39944772 9.42911175 2.20703125 12.5625 C1.41683594 13.366875 0.62664062 14.17125 -0.1875 15 C-2.88514168 17.78601995 -5.39430039 20.45545375 -7.625 23.625 C-10 26 -10 26 -13.625 26.5 C-17 26 -17 26 -20 24 C-21.83005014 17.5948245 -21.83005014 17.5948245 -19.99414062 14.06738281 C-18.50906193 12.13678051 -16.93534555 10.38312184 -15.25 8.625 C-14.69828125 8.01011719 -14.1465625 7.39523437 -13.578125 6.76171875 C-9.42837575 2.20297979 -6.58334976 -0.80612446 0 0 Z " fill="#080808" transform="translate(1674,255)"/>
<path d="M0 0 C6.46153846 0.46153846 6.46153846 0.46153846 9 3 C9.4921875 5.17578125 9.4921875 5.17578125 9 8 C7.28886342 10.61984576 5.23176625 12.88066327 3.125 15.1875 C2.56941406 15.81591797 2.01382812 16.44433594 1.44140625 17.09179688 C-4.65878644 23.96370068 -4.65878644 23.96370068 -7.9375 24.3125 C-11 24 -11 24 -12.875 22.8125 C-14.48420812 20.21988692 -14.46969602 19.0446367 -14 16 C-12.29325735 13.37760169 -10.23150308 11.11904857 -8.125 8.8125 C-7.56941406 8.18408203 -7.01382812 7.55566406 -6.44140625 6.90820312 C-4.34500299 4.54659222 -2.23326209 2.23326209 0 0 Z " fill="#0A0A0A" transform="translate(1683,266)"/>
<path d="M0 0 C2.73046875 0.37890625 2.73046875 0.37890625 3.73046875 1.37890625 C4.18617121 4.33220874 4.27670704 6.47658244 2.6953125 9.08886719 C1.2691302 10.87768986 -0.21989856 12.57101277 -1.76953125 14.25390625 C-2.29417969 14.846875 -2.81882812 15.43984375 -3.359375 16.05078125 C-4.64962694 17.50524707 -5.95785678 18.94372997 -7.26953125 20.37890625 C-12.01953125 19.50390625 -12.01953125 19.50390625 -14.26953125 18.37890625 C-13.88490738 12.56600585 -12.50619506 9.717513 -8.58203125 5.44140625 C-7.73253906 4.48363281 -6.88304687 3.52585937 -6.0078125 2.5390625 C-3.26953125 0.37890625 -3.26953125 0.37890625 0 0 Z " fill="#0B0B0B" transform="translate(1699.26953125,275.62109375)"/>
<path d="M0 0 C2.875 2.1875 2.875 2.1875 5 5 C5 6.65 5 8.3 5 10 C-0.94 10 -6.88 10 -13 10 C-11 3 -11 3 -8.75 1.0625 C-5.46003949 -0.20862111 -3.49452998 -0.58242166 0 0 Z " fill="#FFFAFE" transform="translate(1756,397)"/>
<path d="M0 0 C2.875 2.1875 2.875 2.1875 5 5 C5 6.65 5 8.3 5 10 C-0.94 10 -6.88 10 -13 10 C-11 3 -11 3 -8.75 1.0625 C-5.46003949 -0.20862111 -3.49452998 -0.58242166 0 0 Z " fill="#FFFAFE" transform="translate(1442,397)"/>
</svg>
